<svg width="18" height="18" viewBox="0 0 18 18" fill="none" xmlns="http://www.w3.org/2000/svg">
<path d="M9.89626 5.39898H8.09694V8.09847H5.39796V9.89813H8.09694V12.5976H9.89626V9.89813H12.5952V8.09847H9.89626V5.39898ZM8.9966 0C4.04847 0 0 4.04923 0 8.9983C0 13.9474 4.04847 17.9966 8.9966 17.9966C13.9447 17.9966 17.9932 13.9474 17.9932 8.9983C17.9932 4.04923 13.9447 0 8.9966 0ZM8.9966 16.1969C5.0381 16.1969 1.79932 12.9575 1.79932 8.9983C1.79932 5.03905 5.0381 1.79966 8.9966 1.79966C12.9551 1.79966 16.1939 5.03905 16.1939 8.9983C16.1939 12.9575 12.9551 16.1969 8.9966 16.1969Z" transform="translate(-0.000488281 -0.000610352)" fill="black"/>
</svg>
