<svg xmlns="http://www.w3.org/2000/svg" xmlns:xlink="http://www.w3.org/1999/xlink" viewBox="0 0 40 40" version="1.1">
<g id="surface1">
<path style=" fill:#B6DCFE;" d="M 24.117188 35.5 L 15.882813 35.5 L 10.5 38.191406 L 10.5 36.234375 L 16.179688 31.5 L 23.820313 31.5 L 29.5 36.234375 L 29.5 38.191406 Z "></path>
<path style=" fill:#4788C7;" d="M 23.636719 32 L 29 36.46875 L 29 37.382813 L 24.234375 35 L 15.765625 35 L 11 37.382813 L 11 36.46875 L 16.363281 32 L 23.636719 32 M 24 31 L 16 31 L 10 36 L 10 39 L 16 36 L 24 36 L 30 39 L 30 36 Z "></path>
<path style=" fill:#B6DCFE;" d="M 24.070313 23.5 L 15.929688 23.5 L 2.5 27.335938 L 2.5 24.289063 L 16.132813 16.5 L 23.867188 16.5 L 37.5 24.289063 L 37.5 27.335938 Z "></path>
<path style=" fill:#4788C7;" d="M 23.734375 17 L 37 24.578125 L 37 26.675781 L 24.273438 23.039063 L 24.140625 23 L 15.859375 23 L 15.726563 23.039063 L 3 26.675781 L 3 24.578125 L 16.265625 17 L 23.734375 17 M 24 16 L 16 16 L 2 24 L 2 28 L 16 24 L 24 24 L 38 28 L 38 24 Z "></path>
<path style=" fill:#DFF0FE;" d="M 16.5 35.5 L 16.5 5 C 16.5 3.070313 18.070313 1.5 20 1.5 C 21.929688 1.5 23.5 3.070313 23.5 5 L 23.5 35.5 Z "></path>
<path style=" fill:#4788C7;" d="M 20 2 C 21.652344 2 23 3.347656 23 5 L 23 35 L 17 35 L 17 5 C 17 3.347656 18.347656 2 20 2 M 20 1 C 17.789063 1 16 2.789063 16 5 L 16 36 L 24 36 L 24 5 C 24 2.789063 22.210938 1 20 1 Z "></path>
</g>
</svg>