<svg xmlns="http://www.w3.org/2000/svg" xmlns:xlink="http://www.w3.org/1999/xlink" viewBox="0 0 40 40" version="1.1">
<g id="surface1">
<path style=" fill:#4788C7;" d="M 25.5 14 L 14.5 14 C 14.222656 14 14 13.777344 14 13.5 C 14 13.222656 14.222656 13 14.5 13 L 25.5 13 C 25.777344 13 26 13.222656 26 13.5 C 26 13.777344 25.777344 14 25.5 14 Z "></path>
<path style=" fill:#DFF0FE;" d="M 17.605469 18.5 L 18.96875 11.414063 C 19.046875 10.882813 19.488281 10.5 20 10.5 C 20.511719 10.5 20.953125 10.882813 21.027344 11.390625 L 22.394531 18.5 Z "></path>
<path style=" fill:#4788C7;" d="M 20 11 C 20.265625 11 20.492188 11.199219 20.539063 11.507813 L 21.789063 18 L 18.210938 18 L 19.46875 11.460938 C 19.507813 11.199219 19.734375 11 20 11 M 20 10 C 19.234375 10 18.585938 10.5625 18.476563 11.320313 L 17 19 L 23 19 L 21.523438 11.320313 C 21.414063 10.5625 20.765625 10 20 10 Z "></path>
<path style=" fill:#DFF0FE;" d="M 17.058594 25.5 L 0.5 21.605469 L 0.5 19.5 L 39.5 19.5 L 39.5 21.605469 L 22.941406 25.503906 Z "></path>
<path style=" fill:#4788C7;" d="M 39 20 L 39 21.207031 L 22.882813 25.003906 L 17.117188 25 L 1 21.207031 L 1 20 L 39 20 M 40 19 L 0 19 L 0 22 L 17 26 L 23 26.003906 L 40 22 Z "></path>
<path style=" fill:#B6DCFE;" d="M 20 29.5 C 17.039063 29.5 14.5 26.109375 14.5 23.332031 C 14.5 20.667969 16.96875 18.5 20 18.5 C 23.03125 18.5 25.5 20.667969 25.5 23.332031 C 25.5 26.109375 22.960938 29.5 20 29.5 Z "></path>
<path style=" fill:#4788C7;" d="M 20 19 C 22.757813 19 25 20.945313 25 23.332031 C 25 25.832031 22.644531 29 20 29 C 17.355469 29 15 25.832031 15 23.332031 C 15 20.945313 17.242188 19 20 19 M 20 18 C 16.6875 18 14 20.386719 14 23.332031 C 14 26.277344 16.6875 30 20 30 C 23.3125 30 26 26.277344 26 23.332031 C 26 20.386719 23.3125 18 20 18 Z "></path>
<path style=" fill:#B6DCFE;" d="M 35.5 25.5 C 35.5 27.15625 34.15625 28.5 32.5 28.5 C 30.84375 28.5 29.5 27.15625 29.5 25.5 C 29.5 23.84375 30.84375 22.5 32.5 22.5 C 34.15625 22.5 35.5 23.84375 35.5 25.5 Z "></path>
<path style=" fill:#4788C7;" d="M 32.5 23 C 33.878906 23 35 24.121094 35 25.5 C 35 26.878906 33.878906 28 32.5 28 C 31.121094 28 30 26.878906 30 25.5 C 30 24.121094 31.121094 23 32.5 23 M 32.5 22 C 30.566406 22 29 23.566406 29 25.5 C 29 27.433594 30.566406 29 32.5 29 C 34.433594 29 36 27.433594 36 25.5 C 36 23.566406 34.433594 22 32.5 22 Z "></path>
<path style=" fill:#4788C7;" d="M 21.25 26 C 21.25 26.691406 20.691406 27.25 20 27.25 C 19.308594 27.25 18.75 26.691406 18.75 26 C 18.75 25.308594 19.308594 24.75 20 24.75 C 20.691406 24.75 21.25 25.308594 21.25 26 Z "></path>
<path style=" fill:#B6DCFE;" d="M 10.5 25.5 C 10.5 27.15625 9.15625 28.5 7.5 28.5 C 5.84375 28.5 4.5 27.15625 4.5 25.5 C 4.5 23.84375 5.84375 22.5 7.5 22.5 C 9.15625 22.5 10.5 23.84375 10.5 25.5 Z "></path>
<path style=" fill:#4788C7;" d="M 7.5 23 C 8.878906 23 10 24.121094 10 25.5 C 10 26.878906 8.878906 28 7.5 28 C 6.121094 28 5 26.878906 5 25.5 C 5 24.121094 6.121094 23 7.5 23 M 7.5 22 C 5.566406 22 4 23.566406 4 25.5 C 4 27.433594 5.566406 29 7.5 29 C 9.433594 29 11 27.433594 11 25.5 C 11 23.566406 9.433594 22 7.5 22 Z "></path>
<path style=" fill:#4788C7;" d="M 23 23 L 17 23 L 18 22 L 22 22 Z "></path>
</g>
</svg>