<svg xmlns="http://www.w3.org/2000/svg" xmlns:xlink="http://www.w3.org/1999/xlink" viewBox="0 0 40 40" version="1.1">
<g id="surface1">
<path style=" fill:#4788C7;" d="M 23 29.5 L 24 29.5 L 24 36.285156 L 23 36.285156 Z "></path>
<path style=" fill:#4788C7;" d="M 16 29.5 L 17 29.5 L 17 36.285156 L 16 36.285156 Z "></path>
<path style=" fill:#98CCFD;" d="M 16.25 30.5 C 15.375 29.351563 14.421875 28.175781 13.492188 27.035156 C 10.054688 22.808594 6.5 18.433594 6.5 14.570313 C 6.5 7.363281 12.554688 1.5 20 1.5 C 27.445313 1.5 33.5 7.363281 33.5 14.570313 C 33.5 18.433594 29.945313 22.808594 26.507813 27.035156 C 25.578125 28.175781 24.625 29.347656 23.75 30.5 Z "></path>
<path style=" fill:#4788C7;" d="M 20 2 C 27.167969 2 33 7.640625 33 14.570313 C 33 18.257813 29.503906 22.558594 26.117188 26.71875 C 25.242188 27.796875 24.339844 28.90625 23.503906 30 L 16.496094 30 C 15.660156 28.90625 14.757813 27.796875 13.882813 26.71875 C 10.496094 22.558594 7 18.257813 7 14.570313 C 7 7.640625 12.832031 2 20 2 M 20 1 C 12.269531 1 6 7.074219 6 14.570313 C 6 19.753906 11.867188 25.507813 16 31 L 24 31 C 28.132813 25.507813 34 19.753906 34 14.570313 C 34 7.074219 27.730469 1 20 1 Z "></path>
<path style=" fill:#DFF0FE;" d="M 22 30 C 36.5625 1.9375 20 2 20 2 C 20 2 30.59375 4.78125 21.023438 30 Z "></path>
<path style=" fill:#DFF0FE;" d="M 18 30 C 3.4375 1.9375 20 2 20 2 C 20 2 9.40625 4.78125 18.976563 30 Z "></path>
<path style=" fill:#DFF0FE;" d="M 18 38.5 C 17.171875 38.5 16.5 37.828125 16.5 37 L 16.5 33.5 L 23.5 33.5 L 23.5 37 C 23.5 37.828125 22.828125 38.5 22 38.5 Z "></path>
<path style=" fill:#4788C7;" d="M 23 34 L 23 37 C 23 37.550781 22.550781 38 22 38 L 18 38 C 17.449219 38 17 37.550781 17 37 L 17 34 L 23 34 M 24 33 L 16 33 L 16 37 C 16 38.105469 16.894531 39 18 39 L 22 39 C 23.105469 39 24 38.105469 24 37 Z "></path>
</g>
</svg>