<svg xmlns="http://www.w3.org/2000/svg" xmlns:xlink="http://www.w3.org/1999/xlink" viewBox="0 0 40 40" version="1.1">
<g id="surface1">
<path style=" fill:#DFF0FE;" d="M 17.738281 8.585938 C 20.917969 8.996094 32.84375 11.085938 35.371094 19.585938 L 22.335938 21.445313 Z "></path>
<path style=" fill:#4788C7;" d="M 18.488281 9.195313 C 22.335938 9.789063 32.125 11.992188 34.710938 19.175781 L 22.667969 20.894531 L 18.488281 9.195313 M 17 8 L 22 22 L 36 20 C 33.382813 9.257813 17 8 17 8 Z "></path>
<path style=" fill:#4788C7;" d="M 12 2 L 13 2 L 13 27 L 12 27 Z "></path>
<path style=" fill:#4788C7;" d="M 12 6 C 16.132813 3.425781 17.769531 5.980469 21.5 4.5 C 20.121094 4.480469 17.003906 2 13.355469 2 C 12.09375 2 12 2 12 2 Z "></path>
<path style=" fill:#DFF0FE;" d="M 12.859375 23.140625 C 16.355469 16.285156 14.050781 9.386719 12.9375 6.8125 C 16.449219 7.980469 27.5625 12.4375 29.414063 22.523438 Z "></path>
<path style=" fill:#4788C7;" d="M 13.835938 7.65625 C 17.953125 9.191406 26.882813 13.457031 28.808594 22.042969 L 13.671875 22.609375 C 16.421875 16.558594 14.984375 10.699219 13.835938 7.65625 M 12 6 C 12 6 17.03125 14.957031 12 23.675781 L 30 23 C 28.109375 10.140625 12 6 12 6 Z "></path>
<path style=" fill:#98CCFD;" d="M 6.25 34.5 C 5.570313 33.578125 2.695313 29.390625 2.511719 24.5 L 8.792969 24.5 L 10.792969 26.5 L 26.207031 26.5 L 28.207031 24.5 L 36.488281 24.5 C 36.191406 30.480469 30.703125 33.996094 29.863281 34.5 Z "></path>
<path style=" fill:#4788C7;" d="M 35.949219 25 C 35.40625 30.191406 30.765625 33.351563 29.722656 34 L 6.503906 34 C 5.695313 32.855469 3.371094 29.246094 3.039063 25 L 8.585938 25 L 10.585938 27 L 26.414063 27 L 28.414063 25 L 35.949219 25 M 37 24 L 28 24 L 26 26 L 11 26 L 9 24 L 2 24 C 2 29.988281 6 35 6 35 L 30 35 C 30 35 37 31.144531 37 24 Z "></path>
<path style=" fill:#B6DCFE;" d="M 1 39 L 39 39 L 39 31.878906 C 37.691406 31.613281 36.148438 31 35 31 C 33.542969 31 31.4375 32 30 32 C 28.5625 32 26.457031 31 25 31 C 23.542969 31 21.4375 32 20 32 C 18.5625 32 16.457031 31 15 31 C 13.542969 31 11.4375 32 10 32 C 8.5625 32 6.457031 31 5 31 C 3.851563 31 2.308594 31.613281 1 31.878906 Z "></path>
<path style="fill:none;stroke-width:1;stroke-linecap:round;stroke-linejoin:miter;stroke:#4788C7;stroke-opacity:1;stroke-miterlimit:10;" d="M 1.5 32.277344 C 1.863281 32.191406 2.238281 32.085938 2.613281 31.980469 C 3.460938 31.746094 4.335938 31.5 5 31.5 C 5.664063 31.5 6.535156 31.746094 7.382813 31.984375 C 8.28125 32.238281 9.214844 32.5 10 32.5 C 10.785156 32.5 11.71875 32.238281 12.617188 31.984375 C 13.464844 31.746094 14.335938 31.5 15 31.5 C 15.664063 31.5 16.535156 31.746094 17.382813 31.984375 C 18.28125 32.238281 19.214844 32.5 20 32.5 C 20.785156 32.5 21.71875 32.238281 22.617188 31.984375 C 23.464844 31.746094 24.335938 31.5 25 31.5 C 25.664063 31.5 26.535156 31.746094 27.382813 31.984375 C 28.28125 32.238281 29.214844 32.5 30 32.5 C 30.785156 32.5 31.71875 32.238281 32.617188 31.984375 C 33.464844 31.746094 34.335938 31.5 35 31.5 C 35.664063 31.5 36.539063 31.746094 37.386719 31.980469 C 37.761719 32.085938 38.136719 32.191406 38.5 32.277344 "></path>
</g>
</svg>