<svg xmlns="http://www.w3.org/2000/svg" xmlns:xlink="http://www.w3.org/1999/xlink" viewBox="0 0 40 40" version="1.1">
<g id="surface1">
<path style=" fill:#98CCFD;" d="M 4 28.5 C 2.070313 28.5 0.5 26.929688 0.5 25 L 0.5 19.753906 C 0.5 18.757813 1.175781 17.890625 2.144531 17.652344 L 6.328125 16.421875 L 8.429688 12.875 C 9.296875 11.410156 10.890625 10.5 12.59375 10.5 L 21.992188 10.5 C 23.273438 10.5 24.523438 11.019531 25.425781 11.929688 L 29.730469 16.441406 L 37.914063 18.929688 C 38.851563 19.195313 39.5 20.050781 39.5 21.015625 L 39.5 26.332031 C 39.5 27.527344 38.527344 28.5 37.332031 28.5 Z "></path>
<path style=" fill:#4788C7;" d="M 21.992188 11 C 23.140625 11 24.261719 11.46875 25.058594 12.269531 L 29.277344 16.691406 L 29.457031 16.878906 L 29.707031 16.957031 L 37.785156 19.410156 C 38.503906 19.613281 39 20.273438 39 21.015625 L 39 26.332031 C 39 27.253906 38.253906 28 37.332031 28 L 4 28 C 2.347656 28 1 26.652344 1 25 L 1 19.753906 C 1 18.988281 1.519531 18.320313 2.308594 18.125 L 6.28125 16.960938 L 6.660156 16.847656 L 6.859375 16.511719 L 8.863281 13.128906 C 9.636719 11.816406 11.066406 11 12.59375 11 L 21.992188 11 M 21.992188 10 L 12.59375 10 C 10.707031 10 8.960938 10.996094 8 12.621094 L 6 16 L 2.027344 17.164063 C 0.835938 17.460938 0 18.527344 0 19.753906 L 0 25 C 0 27.210938 1.789063 29 4 29 L 37.332031 29 C 38.804688 29 40 27.804688 40 26.332031 L 40 21.015625 C 40 19.824219 39.210938 18.773438 38.0625 18.449219 L 30 16 L 25.78125 11.578125 C 24.777344 10.570313 23.414063 10 21.992188 10 Z "></path>
<path style=" fill:#DFF0FE;" d="M 35.5 27.5 C 35.5 29.710938 33.710938 31.5 31.5 31.5 C 29.289063 31.5 27.5 29.710938 27.5 27.5 C 27.5 25.289063 29.289063 23.5 31.5 23.5 C 33.710938 23.5 35.5 25.289063 35.5 27.5 Z "></path>
<path style=" fill:#4788C7;" d="M 31.5 24 C 33.429688 24 35 25.570313 35 27.5 C 35 29.429688 33.429688 31 31.5 31 C 29.570313 31 28 29.429688 28 27.5 C 28 25.570313 29.570313 24 31.5 24 M 31.5 23 C 29.015625 23 27 25.015625 27 27.5 C 27 29.984375 29.015625 32 31.5 32 C 33.984375 32 36 29.984375 36 27.5 C 36 25.015625 33.984375 23 31.5 23 Z "></path>
<path style=" fill:#4788C7;" d="M 33 27.5 C 33 28.328125 32.328125 29 31.5 29 C 30.671875 29 30 28.328125 30 27.5 C 30 26.671875 30.671875 26 31.5 26 C 32.328125 26 33 26.671875 33 27.5 Z "></path>
<path style=" fill:#DFF0FE;" d="M 12.5 27.5 C 12.5 29.710938 10.710938 31.5 8.5 31.5 C 6.289063 31.5 4.5 29.710938 4.5 27.5 C 4.5 25.289063 6.289063 23.5 8.5 23.5 C 10.710938 23.5 12.5 25.289063 12.5 27.5 Z "></path>
<path style=" fill:#4788C7;" d="M 8.5 24 C 10.429688 24 12 25.570313 12 27.5 C 12 29.429688 10.429688 31 8.5 31 C 6.570313 31 5 29.429688 5 27.5 C 5 25.570313 6.570313 24 8.5 24 M 8.5 23 C 6.015625 23 4 25.015625 4 27.5 C 4 29.984375 6.015625 32 8.5 32 C 10.984375 32 13 29.984375 13 27.5 C 13 25.015625 10.984375 23 8.5 23 Z "></path>
<path style=" fill:#4788C7;" d="M 10 27.5 C 10 28.328125 9.328125 29 8.5 29 C 7.671875 29 7 28.328125 7 27.5 C 7 26.671875 7.671875 26 8.5 26 C 9.328125 26 10 26.671875 10 27.5 Z "></path>
<path style=" fill:#DFF0FE;" d="M 5.890625 16.5 L 8.410156 12.90625 C 9.296875 11.410156 10.890625 10.5 12.59375 10.5 L 21.992188 10.5 C 23.273438 10.5 24.523438 11.019531 25.425781 11.929688 L 30.0625 16.5 Z "></path>
<path style=" fill:#4788C7;" d="M 21.992188 11 C 23.140625 11 24.261719 11.46875 25.078125 12.292969 L 28.84375 16 L 6.851563 16 L 8.816406 13.195313 L 8.839844 13.164063 L 8.859375 13.128906 C 9.636719 11.816406 11.066406 11 12.59375 11 L 21.992188 11 M 21.992188 10 L 12.59375 10 C 10.707031 10 8.960938 10.996094 8 12.621094 L 5.394531 16.332031 L 3 17 L 33 17 L 30.605469 16.332031 L 25.78125 11.578125 C 24.777344 10.570313 23.414063 10 21.992188 10 Z "></path>
<path style="fill:none;stroke-width:1;stroke-linecap:butt;stroke-linejoin:miter;stroke:#4788C7;stroke-opacity:1;stroke-miterlimit:10;" d="M 16.5 17 L 16.5 10.332031 "></path>
<path style=" fill:#FFFFFF;" d="M 2.5 23 L 1 23 L 1 20 L 2.5 20 C 3.328125 20 4 20.671875 4 21.5 C 4 22.328125 3.328125 23 2.5 23 Z "></path>
<path style=" fill:#FFFFFF;" d="M 38.5 21 C 37.671875 21 37 21.671875 37 22.5 C 37 23.328125 37.671875 24 38.5 24 L 39 24 L 39 21.5 C 39 21.324219 38.964844 21.160156 38.921875 21 Z "></path>
</g>
</svg>