<svg xmlns="http://www.w3.org/2000/svg" xmlns:xlink="http://www.w3.org/1999/xlink" viewBox="0 0 40 40" version="1.1">
<g id="surface1">
<path style=" fill:#4788C7;" d="M 5.5 8 C 5.226563 8 5 7.773438 5 7.5 L 5 1.5 C 5 1.226563 5.226563 1 5.5 1 C 5.773438 1 6 1.226563 6 1.5 L 6 7.5 C 6 7.773438 5.773438 8 5.5 8 Z "></path>
<path style=" fill:#B6DCFE;" d="M 16.5 7.5 L 22.5 7.5 L 22.5 13.5 L 16.5 13.5 Z "></path>
<path style=" fill:#4788C7;" d="M 22 8 L 22 13 L 17 13 L 17 8 L 22 8 M 23 7 L 16 7 L 16 14 L 23 14 Z "></path>
<path style=" fill:#B6DCFE;" d="M 22.5 7.5 L 28.5 7.5 L 28.5 13.5 L 22.5 13.5 Z "></path>
<path style=" fill:#4788C7;" d="M 28 8 L 28 13 L 23 13 L 23 8 L 28 8 M 29 7 L 22 7 L 22 14 L 29 14 Z "></path>
<path style=" fill:#B6DCFE;" d="M 28.5 7.5 L 34.5 7.5 L 34.5 13.5 L 28.5 13.5 Z "></path>
<path style=" fill:#4788C7;" d="M 34 8 L 34 13 L 29 13 L 29 8 L 34 8 M 35 7 L 28 7 L 28 14 L 35 14 Z "></path>
<path style=" fill:#B6DCFE;" d="M 16.5 13.5 L 22.5 13.5 L 22.5 19.5 L 16.5 19.5 Z "></path>
<path style=" fill:#4788C7;" d="M 22 14 L 22 19 L 17 19 L 17 14 L 22 14 M 23 13 L 16 13 L 16 20 L 23 20 Z "></path>
<path style=" fill:#B6DCFE;" d="M 22.5 13.5 L 28.5 13.5 L 28.5 19.5 L 22.5 19.5 Z "></path>
<path style=" fill:#4788C7;" d="M 28 14 L 28 19 L 23 19 L 23 14 L 28 14 M 29 13 L 22 13 L 22 20 L 29 20 Z "></path>
<path style=" fill:#B6DCFE;" d="M 28.5 13.5 L 34.5 13.5 L 34.5 19.5 L 28.5 19.5 Z "></path>
<path style=" fill:#4788C7;" d="M 34 14 L 34 19 L 29 19 L 29 14 L 34 14 M 35 13 L 28 13 L 28 20 L 35 20 Z "></path>
<path style=" fill:#DFF0FE;" d="M 1.5 19.5 L 1.5 6.5 L 12.390625 6.5 L 11.511719 10.902344 L 11.5 19.5 Z "></path>
<path style=" fill:#4788C7;" d="M 11.78125 7 L 11.019531 10.804688 L 11 10.902344 L 11 19 L 2 19 L 2 7 L 11.78125 7 M 13 6 L 1 6 L 1 20 L 12 20 L 12 11 Z "></path>
<path style=" fill:#98CCFD;" d="M 4.207031 34.558594 C 4.148438 32.5 3.695313 31.261719 3.175781 29.839844 C 2.449219 27.859375 1.550781 25.410156 1.503906 19.5 C 1.503906 19.5 24.003906 19.5 24.007813 19.5 C 24.671875 19.5 27.613281 19.34375 30.222656 16.5 L 38.496094 16.5 C 38.417969 24.304688 36.503906 27.332031 34.957031 29.777344 C 34.015625 31.269531 33.1875 32.574219 33.082031 34.558594 L 19.207031 36.394531 Z "></path>
<path style=" fill:#4788C7;" d="M 37.988281 17 C 37.835938 24.289063 36.015625 27.171875 34.535156 29.511719 C 33.65625 30.902344 32.820313 32.226563 32.617188 34.117188 L 19.203125 35.890625 L 4.6875 34.113281 C 4.578125 32.21875 4.121094 30.972656 3.644531 29.667969 C 2.914063 27.683594 2.097656 25.453125 2.007813 20 L 23.949219 20 C 23.949219 20 23.992188 20 24.074219 20 C 24.675781 20 27.714844 19.851563 30.4375 17 L 37.988281 17 M 39 16 C 39 16 32.554688 16 30 16 C 27.46875 18.871094 24.574219 19 24.074219 19 C 24.027344 19 24 19 24 19 L 1 19 C 1 29.855469 3.714844 29.59375 3.714844 35 L 19.207031 36.898438 L 33.570313 35 C 33.570313 29.59375 39 29.570313 39 16 Z "></path>
<path style=" fill:#98CCFD;" d="M 5 9 L 7 9 L 7 12 L 5 12 Z "></path>
<path style=" fill:#DFF0FE;" d="M 1.691406 23.5 C 1.5625 22.339844 1.507813 21.199219 1.5 19.5 L 24.300781 19.5 L 24.445313 19.230469 C 24.503906 19.121094 25.921875 16.5 29.5 16.5 L 38.496094 16.5 C 38.472656 19.253906 38.230469 21.503906 37.746094 23.5 Z "></path>
<path style=" fill:#4788C7;" d="M 37.988281 17 C 37.945313 19.316406 37.738281 21.257813 37.347656 23 L 2.140625 23 C 2.058594 22.121094 2.019531 21.207031 2.003906 20 L 24 20 L 24.601563 19.992188 L 24.886719 19.464844 C 24.9375 19.363281 26.242188 17 29.5 17 L 37.988281 17 M 39 16 C 39 16 32.054688 16 29.5 16 C 25.554688 16 24 19 24 19 L 1 19 C 1 21.222656 1.0625 22.546875 1.246094 24 L 38.132813 24 C 38.660156 22 39 19.515625 39 16 Z "></path>
<path style=" fill:#98CCFD;" d="M 30 23 C 30 21.894531 30.894531 21 32 21 L 33 21 C 34.105469 21 35 21.894531 35 23 Z "></path>
<path style=" fill:#B6DCFE;" d="M 1 39 L 39 39 L 39 32.878906 C 37.691406 32.613281 36.148438 32 35 32 C 33.542969 32 31.4375 33 30 33 C 28.5625 33 26.457031 32 25 32 C 23.542969 32 21.4375 33 20 33 C 18.5625 33 16.457031 32 15 32 C 13.542969 32 11.4375 33 10 33 C 8.5625 33 6.457031 32 5 32 C 3.851563 32 2.308594 32.613281 1 32.878906 Z "></path>
<path style="fill:none;stroke-width:1;stroke-linecap:round;stroke-linejoin:miter;stroke:#4788C7;stroke-opacity:1;stroke-miterlimit:10;" d="M 1.5 33.277344 C 1.863281 33.191406 2.238281 33.085938 2.613281 32.980469 C 3.460938 32.746094 4.335938 32.5 5 32.5 C 5.664063 32.5 6.535156 32.746094 7.382813 32.984375 C 8.28125 33.238281 9.214844 33.5 10 33.5 C 10.785156 33.5 11.71875 33.238281 12.617188 32.984375 C 13.464844 32.746094 14.335938 32.5 15 32.5 C 15.664063 32.5 16.535156 32.746094 17.382813 32.984375 C 18.28125 33.238281 19.214844 33.5 20 33.5 C 20.785156 33.5 21.71875 33.238281 22.617188 32.984375 C 23.464844 32.746094 24.335938 32.5 25 32.5 C 25.664063 32.5 26.535156 32.746094 27.382813 32.984375 C 28.28125 33.238281 29.214844 33.5 30 33.5 C 30.785156 33.5 31.71875 33.238281 32.617188 32.984375 C 33.464844 32.746094 34.335938 32.5 35 32.5 C 35.664063 32.5 36.539063 32.746094 37.386719 32.980469 C 37.761719 33.085938 38.136719 33.191406 38.5 33.277344 "></path>
<path style=" fill:#98CCFD;" d="M 9 12 L 11 12 L 11 10.902344 L 11.019531 10.804688 L 11.378906 9 L 9 9 Z "></path>
</g>
</svg>