<svg xmlns="http://www.w3.org/2000/svg" xmlns:xlink="http://www.w3.org/1999/xlink" viewBox="0 0 40 40" version="1.1">
<g id="surface1">
<path style="fill:none;stroke-width:1;stroke-linecap:butt;stroke-linejoin:miter;stroke:#4788C7;stroke-opacity:1;stroke-miterlimit:10;" d="M 19.539063 1.375 L 25.605469 15.417969 L 20.429688 27.460938 "></path>
<path style=" fill:#DFF0FE;" d="M 2.664063 22.636719 C 7.933594 8.601563 16.949219 3.109375 19.5 1.792969 L 19.5 26.378906 Z "></path>
<path style=" fill:#4788C7;" d="M 19 2.636719 L 19 25.753906 L 3.339844 22.273438 C 8.136719 9.921875 15.871094 4.433594 19 2.636719 M 20 1 C 20 1 8.25 5.78125 1.996094 23 L 20 27 Z "></path>
<path style=" fill:#DFF0FE;" d="M 38.5 13 C 38.5 14.378906 37.378906 15.5 36 15.5 C 34.621094 15.5 33.5 14.378906 33.5 13 C 33.5 11.621094 34.621094 10.5 36 10.5 C 37.378906 10.5 38.5 11.621094 38.5 13 Z "></path>
<path style=" fill:#4788C7;" d="M 36 11 C 37.101563 11 38 11.898438 38 13 C 38 14.101563 37.101563 15 36 15 C 34.898438 15 34 14.101563 34 13 C 34 11.898438 34.898438 11 36 11 M 36 10 C 34.34375 10 33 11.34375 33 13 C 33 14.65625 34.34375 16 36 16 C 37.65625 16 39 14.65625 39 13 C 39 11.34375 37.65625 10 36 10 Z "></path>
<path style=" fill:#B6DCFE;" d="M 23.855469 30.5 C 23.554688 30.5 23.257813 30.394531 23.019531 30.203125 C 22.722656 29.964844 22.546875 29.621094 22.523438 29.242188 C 22.503906 28.859375 22.636719 28.503906 22.90625 28.230469 L 26.769531 24.8125 C 26.933594 24.652344 27.039063 24.578125 27.148438 24.539063 L 27.285156 24.5 L 30.324219 24.5 L 32.113281 20.5 L 29.203125 20.5 C 28.984375 20.5 28.777344 20.429688 28.601563 20.300781 L 25.140625 18.125 C 24.867188 17.910156 24.664063 17.5625 24.613281 17.171875 C 24.566406 16.777344 24.671875 16.390625 24.914063 16.078125 C 25.195313 15.71875 25.617188 15.511719 26.074219 15.511719 C 26.394531 15.511719 26.699219 15.613281 26.957031 15.808594 L 29.863281 17.5 L 35.820313 17.5 C 36.3125 17.5 36.753906 17.734375 37.027344 18.144531 C 37.304688 18.550781 37.355469 19.042969 37.171875 19.496094 C 36.007813 22.382813 34.3125 26.558594 34.3125 26.558594 C 34.191406 26.835938 34.003906 27.078125 33.753906 27.261719 C 33.558594 27.40625 33.304688 27.449219 32.980469 27.496094 L 32.871094 27.519531 C 32.851563 27.515625 31.933594 27.515625 31.65625 27.515625 C 30.457031 27.515625 28.804688 27.507813 28.226563 27.503906 L 27.941406 27.5 L 24.835938 30.078125 C 24.546875 30.359375 24.214844 30.5 23.855469 30.5 Z "></path>
<path style=" fill:#4788C7;" d="M 26.074219 16.011719 C 26.285156 16.011719 26.488281 16.078125 26.65625 16.207031 L 26.703125 16.242188 L 26.753906 16.269531 L 29.496094 17.863281 L 29.730469 18 L 35.820313 18 C 36.144531 18 36.433594 18.152344 36.613281 18.421875 C 36.792969 18.6875 36.828125 19.011719 36.707031 19.308594 C 35.546875 22.1875 33.855469 26.351563 33.855469 26.351563 C 33.765625 26.554688 33.632813 26.726563 33.453125 26.859375 C 33.355469 26.929688 33.144531 26.964844 32.898438 27.003906 L 32.882813 27.003906 C 32.800781 27.007813 32.53125 27.011719 31.648438 27.011719 C 30.371094 27.011719 28.582031 27.003906 28.125 27 L 27.761719 26.996094 L 27.480469 27.230469 L 24.515625 29.695313 L 24.480469 29.722656 L 24.445313 29.757813 C 24.289063 29.914063 24.078125 30 23.855469 30 C 23.722656 30 23.523438 29.96875 23.335938 29.816406 C 23.148438 29.664063 23.039063 29.453125 23.023438 29.214844 C 23.011719 28.984375 23.089844 28.769531 23.242188 28.601563 L 27.101563 25.1875 L 27.125 25.167969 L 27.148438 25.144531 C 27.257813 25.035156 27.300781 25.015625 27.308594 25.011719 L 27.351563 25 L 30.648438 25 L 30.914063 24.40625 L 32.253906 21.40625 L 32.882813 20 L 29.203125 20 C 29.128906 20 29.015625 19.984375 28.902344 19.898438 L 28.871094 19.875 L 28.835938 19.851563 L 25.453125 17.730469 C 25.265625 17.574219 25.144531 17.351563 25.113281 17.105469 C 25.078125 16.847656 25.148438 16.589844 25.3125 16.386719 C 25.496094 16.148438 25.773438 16.011719 26.074219 16.011719 M 26.074219 15.011719 C 25.488281 15.011719 24.910156 15.273438 24.519531 15.769531 C 23.847656 16.636719 24.007813 17.882813 24.875 18.546875 L 28.304688 20.699219 C 28.574219 20.902344 28.890625 21 29.203125 21 C 29.253906 21 29.433594 21 29.472656 21 L 31.339844 21 L 30 24 L 27.285156 24 C 27.210938 24 27.085938 24.011719 26.988281 24.066406 C 26.777344 24.140625 26.609375 24.269531 26.441406 24.441406 L 22.550781 27.878906 C 21.789063 28.652344 21.863281 29.914063 22.707031 30.59375 C 23.042969 30.867188 23.449219 31 23.855469 31 C 24.328125 31 24.796875 30.820313 25.152344 30.464844 L 28.121094 28 C 28.578125 28.003906 30.371094 28.011719 31.652344 28.011719 C 32.390625 28.011719 32.960938 28.011719 33 28 C 33.382813 27.9375 33.742188 27.890625 34.050781 27.660156 C 34.359375 27.433594 34.613281 27.125 34.773438 26.746094 C 34.773438 26.746094 36.472656 22.570313 37.636719 19.683594 C 38.15625 18.398438 37.207031 17 35.820313 17 L 30 17 L 27.257813 15.40625 C 26.902344 15.140625 26.488281 15.011719 26.074219 15.011719 Z "></path>
<path style=" fill:#4788C7;" d="M 11 27 L 29 27 L 29 28 L 11 28 Z "></path>
<path style=" fill:#98CCFD;" d="M 31 34.5 C 29.539063 34.5 27.671875 31.171875 27.511719 27.5 L 34.488281 27.5 C 34.328125 31.171875 32.460938 34.5 31 34.5 Z "></path>
<path style=" fill:#4788C7;" d="M 33.957031 28 C 33.667969 31.292969 32.027344 34 31 34 C 29.972656 34 28.332031 31.292969 28.042969 28 L 33.957031 28 M 35 27 L 27 27 C 27 30.839844 28.953125 35 31 35 C 33.046875 35 35 30.839844 35 27 Z "></path>
<path style=" fill:#98CCFD;" d="M 9 34.5 C 7.539063 34.5 5.671875 31.171875 5.511719 27.5 L 12.488281 27.5 C 12.328125 31.171875 10.460938 34.5 9 34.5 Z "></path>
<path style=" fill:#4788C7;" d="M 11.957031 28 C 11.667969 31.292969 10.027344 34 9 34 C 7.972656 34 6.332031 31.292969 6.042969 28 L 11.957031 28 M 13 27 L 5 27 C 5 30.839844 6.953125 35 9 35 C 11.046875 35 13 30.839844 13 27 Z "></path>
<path style=" fill:#B6DCFE;" d="M 1 38 L 39 38 L 39 32.878906 C 37.691406 32.613281 36.148438 32 35 32 C 33.542969 32 31.4375 33 30 33 C 28.5625 33 26.457031 32 25 32 C 23.542969 32 21.4375 33 20 33 C 18.5625 33 16.457031 32 15 32 C 13.542969 32 11.4375 33 10 33 C 8.5625 33 6.457031 32 5 32 C 3.851563 32 2.308594 32.613281 1 32.878906 Z "></path>
<path style="fill:none;stroke-width:1;stroke-linecap:round;stroke-linejoin:miter;stroke:#4788C7;stroke-opacity:1;stroke-miterlimit:10;" d="M 1.5 33.277344 C 1.863281 33.191406 2.238281 33.085938 2.613281 32.980469 C 3.460938 32.746094 4.335938 32.5 5 32.5 C 5.664063 32.5 6.535156 32.746094 7.382813 32.984375 C 8.28125 33.238281 9.214844 33.5 10 33.5 C 10.785156 33.5 11.71875 33.238281 12.617188 32.984375 C 13.464844 32.746094 14.335938 32.5 15 32.5 C 15.664063 32.5 16.535156 32.746094 17.382813 32.984375 C 18.28125 33.238281 19.214844 33.5 20 33.5 C 20.785156 33.5 21.71875 33.238281 22.617188 32.984375 C 23.464844 32.746094 24.335938 32.5 25 32.5 C 25.664063 32.5 26.535156 32.746094 27.382813 32.984375 C 28.28125 33.238281 29.214844 33.5 30 33.5 C 30.785156 33.5 31.71875 33.238281 32.617188 32.984375 C 33.464844 32.746094 34.335938 32.5 35 32.5 C 35.664063 32.5 36.539063 32.746094 37.386719 32.980469 C 37.761719 33.085938 38.136719 33.191406 38.5 33.277344 "></path>
<path style=" fill:#4788C7;" d="M 34 26 L 35 26 L 35 27 L 34 27 Z "></path>
</g>
</svg>