<svg xmlns="http://www.w3.org/2000/svg" xmlns:xlink="http://www.w3.org/1999/xlink" viewBox="0 0 40 40" version="1.1">
<g id="surface1">
<path style=" fill:#DFF0FE;" d="M 9.441406 19.5 L 8.511719 12.101563 C 8.484375 11.933594 8.523438 11.789063 8.617188 11.675781 C 8.714844 11.5625 8.851563 11.5 9 11.5 L 11.097656 11.5 C 11.316406 11.5 11.503906 11.636719 11.574219 11.84375 L 14.292969 19.5 Z "></path>
<path style=" fill:#4788C7;" d="M 11.097656 12 L 11.105469 12.019531 L 13.585938 19 L 9.882813 19 L 9 12 L 11.097656 12 M 11.097656 11 L 9 11 C 8.382813 11 7.910156 11.554688 8.015625 12.164063 L 9 20 L 15 20 L 12.046875 11.683594 C 11.910156 11.273438 11.527344 11 11.097656 11 Z "></path>
<path style=" fill:#98CCFD;" d="M 3 27.5 C 1.621094 27.5 0.5 26.378906 0.5 25 L 0.5 19.167969 C 0.5 18.085938 1.1875 17.132813 2.214844 16.792969 L 7.976563 14.546875 L 11.882813 16.5 L 24.117188 16.5 L 28.03125 14.542969 L 37.773438 18.121094 C 38.8125 18.464844 39.5 19.417969 39.5 20.496094 L 39.5 25 C 39.5 26.378906 38.378906 27.5 37 27.5 Z "></path>
<path style=" fill:#4788C7;" d="M 28.0625 15.089844 L 37.628906 18.601563 C 38.449219 18.871094 39 19.636719 39 20.5 L 39 25 C 39 26.101563 38.101563 27 37 27 L 3 27 C 1.898438 27 1 26.101563 1 25 L 1 19.167969 C 1 18.304688 1.550781 17.539063 2.371094 17.269531 L 2.398438 17.261719 L 2.421875 17.25 L 7.949219 15.09375 L 11.554688 16.894531 L 11.765625 17 L 24.234375 17 L 24.445313 16.894531 L 28.0625 15.089844 M 28 14 L 24 16 L 12 16 L 8 14 L 2.058594 16.320313 C 0.828125 16.726563 0 17.875 0 19.167969 L 0 25 C 0 26.65625 1.34375 28 3 28 L 37 28 C 38.65625 28 40 26.65625 40 25 L 40 20.5 C 40 19.207031 39.171875 18.058594 37.945313 17.652344 Z "></path>
<path style=" fill:#DFF0FE;" d="M 35.5 26.5 C 35.5 28.710938 33.710938 30.5 31.5 30.5 C 29.289063 30.5 27.5 28.710938 27.5 26.5 C 27.5 24.289063 29.289063 22.5 31.5 22.5 C 33.710938 22.5 35.5 24.289063 35.5 26.5 Z "></path>
<path style=" fill:#4788C7;" d="M 31.5 23 C 33.429688 23 35 24.570313 35 26.5 C 35 28.429688 33.429688 30 31.5 30 C 29.570313 30 28 28.429688 28 26.5 C 28 24.570313 29.570313 23 31.5 23 M 31.5 22 C 29.015625 22 27 24.015625 27 26.5 C 27 28.984375 29.015625 31 31.5 31 C 33.984375 31 36 28.984375 36 26.5 C 36 24.015625 33.984375 22 31.5 22 Z "></path>
<path style=" fill:#4788C7;" d="M 33 26.5 C 33 27.328125 32.328125 28 31.5 28 C 30.671875 28 30 27.328125 30 26.5 C 30 25.671875 30.671875 25 31.5 25 C 32.328125 25 33 25.671875 33 26.5 Z "></path>
<path style=" fill:#DFF0FE;" d="M 12.5 26.5 C 12.5 28.710938 10.710938 30.5 8.5 30.5 C 6.289063 30.5 4.5 28.710938 4.5 26.5 C 4.5 24.289063 6.289063 22.5 8.5 22.5 C 10.710938 22.5 12.5 24.289063 12.5 26.5 Z "></path>
<path style=" fill:#4788C7;" d="M 8.5 23 C 10.429688 23 12 24.570313 12 26.5 C 12 28.429688 10.429688 30 8.5 30 C 6.570313 30 5 28.429688 5 26.5 C 5 24.570313 6.570313 23 8.5 23 M 8.5 22 C 6.015625 22 4 24.015625 4 26.5 C 4 28.984375 6.015625 31 8.5 31 C 10.984375 31 13 28.984375 13 26.5 C 13 24.015625 10.984375 22 8.5 22 Z "></path>
<path style="fill:none;stroke-width:1;stroke-linecap:round;stroke-linejoin:miter;stroke:#4788C7;stroke-opacity:1;stroke-miterlimit:10;" d="M 23.5 9.5 L 28 14.480469 "></path>
<path style=" fill:#4788C7;" d="M 10 26.5 C 10 27.328125 9.328125 28 8.5 28 C 7.671875 28 7 27.328125 7 26.5 C 7 25.671875 7.671875 25 8.5 25 C 9.328125 25 10 25.671875 10 26.5 Z "></path>
<path style=" fill:#FFFFFF;" d="M 2.5 22 L 1 22 L 1 19 L 2.5 19 C 3.328125 19 4 19.671875 4 20.5 C 4 21.328125 3.328125 22 2.5 22 Z "></path>
<path style=" fill:#FFFFFF;" d="M 38.5 20 C 37.671875 20 37 20.671875 37 21.5 C 37 22.328125 37.671875 23 38.5 23 L 39 23 L 39 20.5 C 39 20.324219 38.964844 20.160156 38.921875 20 Z "></path>
<path style=" fill:#4788C7;" d="M 20.5 20 L 18.5 20 C 18.222656 20 18 19.777344 18 19.5 C 18 19.222656 18.222656 19 18.5 19 L 20.5 19 C 20.777344 19 21 19.222656 21 19.5 C 21 19.777344 20.777344 20 20.5 20 Z "></path>
</g>
</svg>