<svg xmlns="http://www.w3.org/2000/svg" xmlns:xlink="http://www.w3.org/1999/xlink" viewBox="0 0 40 40" version="1.1">
<g id="surface1">
<path style=" fill:#4788C7;" d="M 8.5 3 C 8.222656 3 8 3.222656 8 3.5 L 8 9.5 C 8 9.777344 8.222656 10 8.5 10 C 8.777344 10 9 9.777344 9 9.5 L 9 3.5 C 9 3.222656 8.777344 3 8.5 3 Z "></path>
<path style=" fill:#4788C7;" d="M 1.5 5 L 15.5 5 C 15.777344 5 16 4.777344 16 4.5 C 16 4.222656 15.777344 4 15.5 4 L 1.5 4 C 1.222656 4 1 4.222656 1 4.5 C 1 4.777344 1.222656 5 1.5 5 Z "></path>
<path style=" fill:#4788C7;" d="M 31.5 3 C 31.222656 3 31 3.222656 31 3.5 L 31 9.5 C 31 9.777344 31.222656 10 31.5 10 C 31.777344 10 32 9.777344 32 9.5 L 32 3.5 C 32 3.222656 31.777344 3 31.5 3 Z "></path>
<path style="fill:none;stroke-width:1;stroke-linecap:round;stroke-linejoin:miter;stroke:#4788C7;stroke-opacity:1;stroke-miterlimit:10;" d="M 4.5 36.5 L 4.5 29 C 4.5 21.585938 10.585938 16 18 16 L 22 16 C 29.414063 16 35.5 21.585938 35.5 29 L 35.5 36.5 "></path>
<path style=" fill:#B6DCFE;" d="M 15.371094 19.5 C 14.285156 19.5 13.367188 18.722656 13.1875 17.648438 L 12.628906 13.023438 L 7.046875 12.503906 C 5.210938 12.351563 4.5 11.558594 4.5 9.683594 L 4.5 9.355469 C 4.5 8.882813 4.882813 8.5 5.355469 8.5 L 34.644531 8.5 C 35.117188 8.5 35.5 8.882813 35.5 9.355469 L 35.5 9.683594 C 35.5 11.558594 34.789063 12.347656 32.957031 12.503906 L 27.316406 13.027344 L 26.527344 17.648438 C 26.347656 18.722656 25.429688 19.5 24.34375 19.5 Z "></path>
<path style=" fill:#4788C7;" d="M 34.644531 9 C 34.839844 9 35 9.160156 35 9.355469 L 35 9.683594 C 35 11.308594 34.492188 11.871094 32.90625 12.003906 L 27.652344 12.496094 L 26.886719 12.566406 L 26.757813 13.320313 L 26.035156 17.566406 C 25.894531 18.398438 25.183594 19 24.34375 19 L 15.371094 19 C 14.53125 19 13.816406 18.398438 13.6875 17.613281 L 13.171875 13.363281 L 13.074219 12.5625 L 12.273438 12.488281 L 7.082031 12.003906 C 5.507813 11.871094 5 11.308594 5 9.683594 L 5 9.355469 C 5 9.160156 5.160156 9 5.355469 9 L 34.644531 9 M 34.644531 8 L 5.355469 8 C 4.605469 8 4 8.609375 4 9.355469 L 4 9.683594 C 4 11.800781 4.890625 12.824219 7 13 L 12.179688 13.484375 L 12.695313 17.730469 C 12.910156 19.039063 14.042969 20 15.371094 20 L 24.34375 20 C 25.671875 20 26.804688 19.039063 27.019531 17.730469 L 27.746094 13.492188 L 33 13 C 35.109375 12.824219 36 11.800781 36 9.683594 L 36 9.355469 C 36 8.609375 35.390625 8 34.644531 8 Z "></path>
<path style=" fill:#4788C7;" d="M 24.5 5 L 38.5 5 C 38.777344 5 39 4.777344 39 4.5 C 39 4.222656 38.777344 4 38.5 4 L 24.5 4 C 24.222656 4 24 4.222656 24 4.5 C 24 4.777344 24.222656 5 24.5 5 Z "></path>
<path style=" fill:#FFFFFF;" d="M 27 9 L 30 9 L 30 11 L 27 11 Z "></path>
<path style=" fill:#FFFFFF;" d="M 10 9 L 13 9 L 13 11 L 10 11 Z "></path>
</g>
</svg>