<svg xmlns="http://www.w3.org/2000/svg" xmlns:xlink="http://www.w3.org/1999/xlink" viewBox="0 0 40 40" version="1.1">
<g id="surface1">
<path style=" fill:#98CCFD;" d="M 13.5 9.5 L 13.5 6.5 L 21 6.5 C 21.726563 6.5 23.132813 7.304688 24.140625 7.996094 C 23.117188 8.691406 21.699219 9.5 21 9.5 Z "></path>
<path style=" fill:#4788C7;" d="M 21 7 C 21.4375 7 22.335938 7.4375 23.226563 7.996094 C 22.320313 8.554688 21.40625 9 21 9 L 14 9 L 14 7 L 21 7 M 21 6 C 19.632813 6 13 6 13 6 L 13 10 C 13 10 19.675781 10 21 10 C 22.324219 10 25 8 25 8 C 25 8 22.367188 6 21 6 Z "></path>
<path style=" fill:#98CCFD;" d="M 13.5 33.5 L 13.5 30.5 L 21 30.5 C 21.726563 30.5 23.132813 31.304688 24.140625 31.996094 C 23.117188 32.691406 21.699219 33.5 21 33.5 Z "></path>
<path style=" fill:#4788C7;" d="M 21 31 C 21.4375 31 22.335938 31.4375 23.226563 31.996094 C 22.320313 32.554688 21.40625 33 21 33 L 14 33 L 14 31 L 21 31 M 21 30 C 19.632813 30 13 30 13 30 L 13 34 C 13 34 19.675781 34 21 34 C 22.324219 34 25 32 25 32 C 25 32 22.367188 30 21 30 Z "></path>
<path style=" fill:#DFF0FE;" d="M 1.691406 27.5 L 3.5 22.082031 L 3.5 17.917969 L 1.691406 12.5 L 3.792969 12.5 L 7.5 16.207031 L 7.5 23.792969 L 3.792969 27.5 Z "></path>
<path style=" fill:#4788C7;" d="M 3.585938 13 L 7 16.414063 L 7 23.585938 L 3.585938 27 L 2.386719 27 L 3.949219 22.316406 L 4 22.160156 L 4 17.839844 L 3.949219 17.683594 L 2.386719 13 L 3.585938 13 M 4 12 L 1 12 L 3 18 L 3 22 L 1 28 L 4 28 L 8 24 L 8 16 Z "></path>
<path style=" fill:#B6DCFE;" d="M 9.5 38.5 L 9.5 1.5 L 11.761719 1.5 L 23.5 16.175781 L 23.5 23.824219 L 11.761719 38.5 Z "></path>
<path style=" fill:#4788C7;" d="M 11.519531 2 L 23 16.351563 L 23 23.648438 L 11.519531 38 L 10 38 L 10 2 L 11.519531 2 M 12 1 L 9 1 L 9 39 L 12 39 L 24 24 L 24 16 Z "></path>
<path style=" fill:#DFF0FE;" d="M 6 23.5 C 4.621094 23.5 3.5 22.378906 3.5 21 L 3.5 19 C 3.5 17.621094 4.621094 16.5 6 16.5 L 27 16.5 C 34.503906 16.5 37.546875 19.121094 38.351563 19.996094 C 37.539063 20.867188 34.464844 23.5 27 23.5 Z "></path>
<path style=" fill:#4788C7;" d="M 27 17 C 33.453125 17 36.507813 19 37.632813 20 C 36.503906 21.003906 33.449219 23 27 23 L 6 23 C 4.898438 23 4 22.101563 4 21 L 4 19 C 4 17.898438 4.898438 17 6 17 L 27 17 M 27 16 L 6 16 C 4.34375 16 3 17.34375 3 19 L 3 21 C 3 22.65625 4.34375 24 6 24 L 27 24 C 36.332031 24 39 20 39 20 C 39 20 36.332031 16 27 16 Z "></path>
<path style=" fill:#4788C7;" d="M 7 21 L 1 21 C 0.449219 21 0 20.550781 0 20 C 0 19.449219 0.449219 19 1 19 L 7 19 C 7.550781 19 8 19.449219 8 20 C 8 20.550781 7.550781 21 7 21 Z "></path>
<path style=" fill:#4788C7;" d="M 14 2 L 10.667969 2 L 10.667969 1 L 13.332031 1 Z "></path>
<path style=" fill:#4788C7;" d="M 14 38 L 10 38 L 10 39 L 13.332031 39 Z "></path>
<path style=" fill:#4788C7;" d="M 29 21 L 27 21 C 26.449219 21 26 20.550781 26 20 C 26 19.449219 26.449219 19 27 19 L 29 19 C 29.550781 19 30 19.449219 30 20 C 30 20.550781 29.550781 21 29 21 Z "></path>
<path style=" fill:#4788C7;" d="M 11.5 1 L 15.5 1 C 15.773438 1 16 1.226563 16 1.5 C 16 1.773438 15.773438 2 15.5 2 L 11.5 2 C 11.226563 2 11 1.773438 11 1.5 C 11 1.226563 11.226563 1 11.5 1 Z "></path>
<path style=" fill:#4788C7;" d="M 13.5 38 L 15.5 38 C 15.773438 38 16 38.226563 16 38.5 C 16 38.773438 15.773438 39 15.5 39 L 13.5 39 C 13.226563 39 13 38.773438 13 38.5 C 13 38.226563 13.226563 38 13.5 38 Z "></path>
</g>
</svg>