<svg xmlns="http://www.w3.org/2000/svg" xmlns:xlink="http://www.w3.org/1999/xlink" viewBox="0 0 40 40" version="1.1">
<g id="surface1">
<path style=" fill:#4788C7;" d="M 23.53125 4.148438 L 27.21875 8.457031 L 1 15.746094 L 1 11.148438 L 23.53125 4.148438 M 23.863281 3 L 0 10.410156 L 0 17.0625 L 29 9 Z "></path>
<path style="fill:none;stroke-width:1;stroke-linecap:butt;stroke-linejoin:round;stroke:#4788C7;stroke-opacity:1;stroke-miterlimit:10;" d="M 23.605469 3.847656 L 21.546875 10.03125 L 15.585938 6.386719 L 13.460938 12.421875 L 8.066406 8.707031 L 5.640625 14.746094 L 0.667969 10.902344 "></path>
<path style=" fill:#98CCFD;" d="M 3 34.5 C 1.621094 34.5 0.5 33.378906 0.5 32 L 0.5 16.5 L 3.859375 16.5 L 8.5 19.28125 L 8.5 22.5 L 16.5 22.5 L 16.5 14 C 16.5 12.621094 17.621094 11.5 19 11.5 L 33.972656 11.5 C 34.96875 11.5 35.867188 12.089844 36.265625 13.003906 L 39.105469 19.191406 C 39.367188 19.792969 39.5 20.441406 39.5 21.109375 L 39.5 32 C 39.5 33.378906 38.378906 34.5 37 34.5 Z "></path>
<path style=" fill:#4788C7;" d="M 33.972656 12 C 34.769531 12 35.488281 12.472656 35.816406 13.21875 L 38.640625 19.382813 C 38.878906 19.929688 39 20.511719 39 21.109375 L 39 32 C 39 33.101563 38.101563 34 37 34 L 3 34 C 1.898438 34 1 33.101563 1 32 L 1 17 L 3.722656 17 L 8 19.566406 L 8 23 L 17 23 L 17 14 C 17 12.898438 17.898438 12 19 12 L 33.972656 12 M 33.972656 11 L 19 11 C 17.34375 11 16 12.34375 16 14 L 16 22 L 9 22 L 9 19 L 4 16 L 0 16 L 0 32 C 0 33.65625 1.34375 35 3 35 L 37 35 C 38.65625 35 40 33.65625 40 32 L 40 21.109375 C 40 20.378906 39.847656 19.652344 39.558594 18.980469 L 36.722656 12.804688 C 36.246094 11.707031 35.167969 11 33.972656 11 Z "></path>
<path style=" fill:#DFF0FE;" d="M 32 22.5 C 31.171875 22.5 30.5 21.828125 30.5 21 L 30.5 16 C 30.5 15.171875 31.171875 14.5 32 14.5 L 36.929688 14.5 L 39.105469 19.191406 C 39.367188 19.792969 39.5 20.441406 39.5 21.109375 L 39.5 22.5 Z "></path>
<path style=" fill:#4788C7;" d="M 36.609375 15 L 38.640625 19.382813 C 38.878906 19.929688 39 20.511719 39 21.109375 L 39 22 L 32 22 C 31.449219 22 31 21.550781 31 21 L 31 16 C 31 15.449219 31.449219 15 32 15 L 36.609375 15 M 37.25 14 L 32 14 C 30.894531 14 30 14.894531 30 16 L 30 21 C 30 22.105469 30.894531 23 32 23 L 40 23 L 40 21.109375 C 40 20.378906 39.847656 19.652344 39.558594 18.980469 Z "></path>
<path style=" fill:#DFF0FE;" d="M 35.5 33.5 C 35.5 35.710938 33.710938 37.5 31.5 37.5 C 29.289063 37.5 27.5 35.710938 27.5 33.5 C 27.5 31.289063 29.289063 29.5 31.5 29.5 C 33.710938 29.5 35.5 31.289063 35.5 33.5 Z "></path>
<path style=" fill:#4788C7;" d="M 31.5 30 C 33.429688 30 35 31.570313 35 33.5 C 35 35.429688 33.429688 37 31.5 37 C 29.570313 37 28 35.429688 28 33.5 C 28 31.570313 29.570313 30 31.5 30 M 31.5 29 C 29.015625 29 27 31.015625 27 33.5 C 27 35.984375 29.015625 38 31.5 38 C 33.984375 38 36 35.984375 36 33.5 C 36 31.015625 33.984375 29 31.5 29 Z "></path>
<path style=" fill:#4788C7;" d="M 33 33.5 C 33 34.328125 32.328125 35 31.5 35 C 30.671875 35 30 34.328125 30 33.5 C 30 32.671875 30.671875 32 31.5 32 C 32.328125 32 33 32.671875 33 33.5 Z "></path>
<path style=" fill:#DFF0FE;" d="M 11.5 33.5 C 11.5 35.710938 9.710938 37.5 7.5 37.5 C 5.289063 37.5 3.5 35.710938 3.5 33.5 C 3.5 31.289063 5.289063 29.5 7.5 29.5 C 9.710938 29.5 11.5 31.289063 11.5 33.5 Z "></path>
<path style=" fill:#4788C7;" d="M 7.5 30 C 9.429688 30 11 31.570313 11 33.5 C 11 35.429688 9.429688 37 7.5 37 C 5.570313 37 4 35.429688 4 33.5 C 4 31.570313 5.570313 30 7.5 30 M 7.5 29 C 5.015625 29 3 31.015625 3 33.5 C 3 35.984375 5.015625 38 7.5 38 C 9.984375 38 12 35.984375 12 33.5 C 12 31.015625 9.984375 29 7.5 29 Z "></path>
<path style=" fill:#4788C7;" d="M 9 33.5 C 9 34.328125 8.328125 35 7.5 35 C 6.671875 35 6 34.328125 6 33.5 C 6 32.671875 6.671875 32 7.5 32 C 8.328125 32 9 32.671875 9 33.5 Z "></path>
<path style=" fill:#DFF0FE;" d="M 22 22.5 C 21.171875 22.5 20.5 21.828125 20.5 21 L 20.5 16 C 20.5 15.171875 21.171875 14.5 22 14.5 L 26 14.5 C 26.828125 14.5 27.5 15.171875 27.5 16 L 27.5 21 C 27.5 21.828125 26.828125 22.5 26 22.5 Z "></path>
<path style=" fill:#4788C7;" d="M 26 15 C 26.550781 15 27 15.449219 27 16 L 27 21 C 27 21.550781 26.550781 22 26 22 L 22 22 C 21.449219 22 21 21.550781 21 21 L 21 16 C 21 15.449219 21.449219 15 22 15 L 26 15 M 26 14 L 22 14 C 20.894531 14 20 14.894531 20 16 L 20 21 C 20 22.105469 20.894531 23 22 23 L 26 23 C 27.105469 23 28 22.105469 28 21 L 28 16 C 28 14.894531 27.105469 14 26 14 Z "></path>
<path style=" fill:#FFFFFF;" d="M 1 25 L 39 25 L 39 27 L 1 27 Z "></path>
</g>
</svg>