<svg xmlns="http://www.w3.org/2000/svg" xmlns:xlink="http://www.w3.org/1999/xlink" viewBox="0 0 40 40" version="1.1">
<g id="surface1">
<path style=" fill:#B6DCFE;" d="M 29.304688 37.5 L 27.367188 30.503906 L 26.570313 21.519531 L 28.792969 20.3125 L 29.5 30.035156 L 31.359375 37.5 Z "></path>
<path style=" fill:#4788C7;" d="M 28.351563 21.121094 L 29.003906 30.074219 L 29.007813 30.160156 L 29.027344 30.242188 L 30.71875 37 L 29.683594 37 L 27.871094 30.460938 L 27.097656 21.800781 L 28.351563 21.121094 M 29.234375 19.503906 L 26.042969 21.234375 L 26.882813 30.640625 L 28.921875 38 L 32 38 L 30 30 Z "></path>
<path style=" fill:#4788C7;" d="M 29.523438 38 L 31.09375 38 C 31.054688 37.484375 30.699219 36.4375 30.625 36 L 29.015625 36 C 29.109375 36.4375 29.476563 37.484375 29.523438 38 Z "></path>
<path style=" fill:#B6DCFE;" d="M 3.386719 29.378906 C 2.234375 27.75 0.5 24.828125 0.5 22.042969 C 0.5 17.703125 2.378906 15.503906 6.085938 15.503906 C 7.683594 15.503906 9.226563 15.917969 10.089844 16.203125 L 9.789063 16.503906 C 8.246094 16.554688 6.953125 17.152344 5.9375 18.289063 C 3.40625 21.121094 3.269531 26.605469 3.386719 29.378906 Z "></path>
<path style=" fill:#4788C7;" d="M 6.085938 16.003906 C 6.84375 16.003906 7.59375 16.101563 8.257813 16.234375 C 7.222656 16.53125 6.324219 17.105469 5.566406 17.953125 C 3.390625 20.390625 2.902344 24.644531 2.863281 27.65625 C 1.929688 26.082031 1 24.015625 1 22.042969 C 1 17.976563 2.664063 16.003906 6.085938 16.003906 M 6.085938 15.003906 C 3.15625 15.003906 0 16.328125 0 22.042969 C 0 26.425781 4 31 4 31 C 4 31 2.417969 17 10 17 L 11 16 C 11 16 8.628906 15.003906 6.085938 15.003906 Z "></path>
<path style=" fill:#B6DCFE;" d="M 12.441406 37.5 L 11.257813 28.144531 C 11.496094 27.535156 12.492188 24.835938 12.855469 21.832031 L 16.148438 22.539063 C 15.964844 25.523438 13.804688 27.617188 13.78125 27.640625 L 13.605469 27.808594 L 14.574219 37.5 Z "></path>
<path style=" fill:#4788C7;" d="M 13.277344 22.433594 L 15.605469 22.933594 C 15.273438 25.484375 13.457031 27.257813 13.4375 27.273438 L 13.082031 27.613281 L 13.132813 28.101563 L 14.019531 37 L 12.882813 37 L 11.769531 28.207031 C 12.054688 27.449219 12.886719 25.109375 13.277344 22.433594 M 12.414063 21.222656 C 12.09375 24.757813 10.746094 28.078125 10.746094 28.078125 L 12 38 L 15.125 38 L 14.125 28 C 14.125 28 16.660156 25.601563 16.660156 22.136719 Z "></path>
<path style=" fill:#DFF0FE;" d="M 23.269531 38.5 L 22.335938 31.011719 L 23 27.28125 L 22.355469 27.332031 C 22.011719 27.359375 21.671875 27.371094 21.335938 27.371094 C 16.449219 27.371094 12.445313 24.617188 12.40625 24.589844 L 11.890625 24.230469 L 11.65625 24.816406 C 10.394531 27.96875 8.78125 29.632813 8.765625 29.652344 L 8.640625 29.773438 L 7.671875 38.5 L 5.542969 38.5 L 6.320313 29.367188 L 7.546875 24.890625 L 7.394531 24.691406 C 7.375 24.667969 5.5 22.230469 5.5 20 C 5.5 15.203125 8.464844 13.5 11 13.5 C 12.238281 13.5 13.609375 14.003906 14.9375 14.488281 C 16.289063 14.984375 17.691406 15.5 19 15.5 C 20.921875 15.5 22.070313 15.113281 22.503906 14.316406 C 22.789063 13.796875 22.671875 13.238281 22.511719 12.894531 C 22.628906 11.746094 23.59375 4.5 29.546875 4.5 C 31.308594 4.5 32.78125 6.316406 32.796875 6.335938 L 37.367188 12.128906 C 37.542969 12.347656 37.554688 12.804688 37.324219 13.035156 L 36.332031 13.941406 C 35.839844 13.714844 34.859375 13.335938 33.804688 13.335938 L 32.90625 13.34375 C 31.910156 13.34375 31.257813 13.222656 30.636719 12.566406 L 30.074219 11.980469 L 29.800781 12.742188 C 28.753906 15.671875 29.066406 17.554688 29.347656 19.21875 C 29.480469 20.023438 29.609375 20.78125 29.554688 21.578125 C 29.410156 23.800781 28.183594 26.195313 26.113281 26.476563 L 25.78125 26.523438 L 24.636719 30.898438 L 25.445313 38.5 Z "></path>
<path style=" fill:#4788C7;" d="M 29.546875 5 C 30.804688 5 32.039063 6.191406 32.402344 6.644531 L 36.976563 12.441406 C 37.011719 12.492188 37.007813 12.640625 37.003906 12.648438 L 36.234375 13.355469 C 35.65625 13.117188 34.769531 12.835938 33.804688 12.835938 C 33.644531 12.835938 33.484375 12.839844 33.328125 12.84375 C 33.183594 12.84375 33.042969 12.847656 32.90625 12.847656 C 32.011719 12.847656 31.5 12.753906 30.996094 12.222656 L 29.878906 11.046875 L 29.332031 12.574219 C 28.238281 15.625 28.578125 17.660156 28.851563 19.300781 C 28.988281 20.109375 29.105469 20.804688 29.058594 21.546875 C 28.929688 23.515625 27.832031 25.738281 26.046875 25.984375 L 25.382813 26.074219 L 25.214844 26.722656 L 24.179688 30.6875 L 24.132813 30.863281 L 24.152344 31.046875 L 24.886719 38 L 23.710938 38 L 22.839844 31.027344 L 23.378906 28.003906 L 23.605469 26.730469 L 22.3125 26.832031 C 21.992188 26.859375 21.660156 26.871094 21.335938 26.871094 C 16.617188 26.871094 12.730469 24.207031 12.691406 24.179688 L 11.660156 23.457031 L 11.191406 24.628906 C 9.972656 27.675781 8.421875 29.285156 8.410156 29.296875 L 8.164063 29.542969 L 8.125 29.890625 L 7.226563 38 L 6.089844 38 L 6.8125 29.5 L 7.964844 25.261719 L 8.097656 24.777344 L 7.789063 24.386719 C 7.289063 23.746094 6 21.714844 6 20 C 6 15.570313 8.691406 14 11 14 C 12.148438 14 13.476563 14.488281 14.765625 14.960938 C 16.160156 15.472656 17.601563 16 19 16 C 21.121094 16 22.410156 15.527344 22.941406 14.558594 C 23.273438 13.953125 23.214844 13.304688 23.023438 12.816406 C 23.183594 11.414063 24.214844 5 29.546875 5 M 29.546875 4 C 22.667969 4 22 13 22 13 C 22 13 23.277344 15 19 15 C 16.523438 15 13.613281 13 11 13 C 8.210938 13 5 14.941406 5 20 C 5 22.433594 7 25 7 25 L 5.824219 29.324219 L 5 39 L 8.121094 39 L 9.121094 30 C 9.121094 30 10.800781 28.300781 12.121094 25 C 12.121094 25 16.222656 27.871094 21.335938 27.871094 C 21.683594 27.871094 22.035156 27.859375 22.394531 27.828125 L 21.828125 31 L 22.828125 39 L 26 39 L 25.144531 30.9375 L 26.179688 26.972656 C 28.574219 26.644531 29.902344 23.945313 30.054688 21.609375 C 30.21875 19.085938 28.75 17.152344 30.269531 12.910156 C 31.066406 13.746094 31.933594 13.84375 32.902344 13.84375 C 33.195313 13.84375 33.496094 13.835938 33.804688 13.835938 C 35.164063 13.835938 36.414063 14.542969 36.414063 14.542969 L 37.679688 13.386719 C 38.089844 12.976563 38.089844 12.234375 37.761719 11.820313 L 33.1875 6.023438 C 33.1875 6.023438 31.578125 4 29.546875 4 Z "></path>
<path style=" fill:#B6DCFE;" d="M 21.175781 14.898438 C 22.035156 14.097656 22.429688 12.585938 22.867188 10.902344 C 23.765625 7.464844 24.785156 3.566406 29.867188 3.5 L 30.917969 4.105469 L 31.144531 4.015625 C 31.535156 3.855469 31.882813 3.777344 32.183594 3.777344 C 32.75 3.777344 33.09375 4.0625 33.453125 4.363281 C 33.703125 4.566406 33.976563 4.796875 34.320313 4.898438 C 33.972656 5.5625 33.226563 6.027344 32.410156 6.027344 C 32.285156 6.027344 32.15625 6.015625 32.027344 5.996094 C 31.753906 5.976563 31.546875 5.972656 31.351563 5.972656 C 27.5625 5.972656 26.828125 7.949219 26.117188 9.863281 C 25.632813 11.167969 25.128906 12.515625 23.695313 13.601563 C 22.8125 14.273438 21.855469 14.761719 21.175781 14.898438 Z "></path>
<path style=" fill:#4788C7;" d="M 29.738281 4.003906 L 30.457031 4.417969 L 30.878906 4.660156 L 31.328125 4.476563 C 31.660156 4.34375 31.945313 4.277344 32.183594 4.277344 C 32.550781 4.277344 32.761719 4.4375 33.132813 4.746094 C 33.257813 4.847656 33.398438 4.964844 33.558594 5.074219 C 33.273438 5.339844 32.875 5.527344 32.410156 5.527344 C 32.3125 5.527344 32.210938 5.519531 32.113281 5.503906 L 32.050781 5.492188 L 31.988281 5.488281 C 31.769531 5.476563 31.558594 5.472656 31.355469 5.472656 C 27.21875 5.472656 26.382813 7.710938 25.648438 9.6875 C 25.167969 10.980469 24.710938 12.203125 23.394531 13.203125 C 23.082031 13.441406 22.769531 13.644531 22.476563 13.816406 C 22.835938 12.996094 23.089844 12.027344 23.351563 11.027344 C 24.238281 7.636719 25.152344 4.132813 29.738281 4.003906 M 30 3 C 20.988281 3 23.578125 14.25 20 14.964844 C 20.109375 15.296875 20.402344 15.441406 20.808594 15.441406 C 21.613281 15.441406 22.859375 14.867188 24 14 C 27.804688 11.109375 25.550781 6.472656 31.355469 6.472656 C 31.542969 6.472656 31.738281 6.476563 31.941406 6.488281 C 32.101563 6.515625 32.257813 6.527344 32.410156 6.527344 C 33.746094 6.527344 34.835938 5.535156 35 4.390625 C 34.886719 4.433594 34.78125 4.449219 34.6875 4.449219 C 33.898438 4.449219 33.507813 3.277344 32.183594 3.277344 C 31.84375 3.277344 31.441406 3.355469 30.957031 3.550781 Z "></path>
<path style="fill:#DFF0FE;stroke-width:1;stroke-linecap:butt;stroke-linejoin:miter;stroke:#4788C7;stroke-opacity:1;stroke-miterlimit:10;" d="M 31.414063 6.496094 L 30.21875 3.128906 C 30.21875 3.128906 27.878906 4.214844 28.585938 7.367188 "></path>
<path style=" fill:#4788C7;" d="M 23.683594 39 L 24.984375 39 C 24.949219 38.484375 24.910156 37.4375 24.847656 37 L 23.515625 37 C 23.59375 37.4375 23.644531 38.484375 23.683594 39 Z "></path>
<path style=" fill:#4788C7;" d="M 5.878906 39 L 8.007813 39 C 8.09375 38.484375 8.269531 37.4375 8.304688 37 L 6.144531 37 C 6.121094 37.4375 5.957031 38.484375 5.878906 39 Z "></path>
<path style=" fill:#4788C7;" d="M 12.84375 38 L 14.101563 38 C 14.054688 37.484375 14.050781 36.4375 13.972656 36 L 12.683594 36 C 12.773438 36.4375 12.792969 37.484375 12.84375 38 Z "></path>
<path style=" fill:#DFF0FE;" d="M 21.5 3 C 21.5 4.378906 20.378906 5.5 19 5.5 C 17.621094 5.5 16.5 4.378906 16.5 3 C 16.5 1.621094 17.621094 0.5 19 0.5 C 20.378906 0.5 21.5 1.621094 21.5 3 Z "></path>
<path style=" fill:#4788C7;" d="M 19 1 C 20.101563 1 21 1.898438 21 3 C 21 4.101563 20.101563 5 19 5 C 17.898438 5 17 4.101563 17 3 C 17 1.898438 17.898438 1 19 1 M 19 0 C 17.34375 0 16 1.34375 16 3 C 16 4.65625 17.34375 6 19 6 C 20.65625 6 22 4.65625 22 3 C 22 1.34375 20.65625 0 19 0 Z "></path>
<path style="fill:#98CCFD;stroke-width:1;stroke-linecap:butt;stroke-linejoin:miter;stroke:#4788C7;stroke-opacity:1;stroke-miterlimit:10;" d="M 15.058594 8.34375 L 13.558594 14.808594 C 13.386719 15.535156 13.726563 16.285156 14.386719 16.632813 L 18.054688 18.59375 L 17.582031 22.820313 C 17.488281 23.625 18.054688 24.355469 18.855469 24.460938 C 19.652344 24.566406 20.386719 24.015625 20.511719 23.222656 L 21.265625 17.886719 C 21.363281 17.246094 21.050781 16.613281 20.484375 16.304688 L 17.992188 14.9375 L 18.871094 10.886719 L 23.414063 12.101563 C 24.203125 12.292969 25.007813 11.835938 25.246094 11.058594 C 25.5 10.234375 25.03125 9.367188 24.207031 9.128906 L 17.261719 7.066406 C 16.296875 6.785156 15.292969 7.367188 15.058594 8.34375 Z "></path>
</g>
</svg>