<svg xmlns="http://www.w3.org/2000/svg" xmlns:xlink="http://www.w3.org/1999/xlink" viewBox="0 0 40 40" version="1.1">
<g id="surface1">
<path style=" fill:#98CCFD;" d="M 28.460938 14.5 C 27.648438 14.5 26.984375 13.839844 26.984375 13.023438 C 26.984375 12.160156 27.648438 11.5 28.460938 11.5 L 30.5 11.5 L 30.5 14.5 Z "></path>
<path style=" fill:#4788C7;" d="M 30 12 L 30 14 L 28.460938 14 C 27.921875 14 27.484375 13.5625 27.484375 13.027344 L 27.484375 12.976563 C 27.484375 12.4375 27.921875 12 28.460938 12 L 30 12 M 31 11 L 28.460938 11 C 27.371094 11 26.484375 11.882813 26.484375 12.972656 L 26.484375 13.023438 C 26.484375 14.113281 27.371094 15 28.460938 15 L 31 15 Z "></path>
<path style=" fill:#98CCFD;" d="M 32.5 21 C 34.980469 21 37 23.019531 37 25.5 C 37 27.980469 34.980469 30 32.5 30 C 30.019531 30 28 27.980469 28 25.5 C 28 23.019531 30.019531 21 32.5 21 M 32.5 18 C 28.359375 18 25 21.359375 25 25.5 C 25 29.640625 28.359375 33 32.5 33 C 36.640625 33 40 29.640625 40 25.5 C 40 21.359375 36.640625 18 32.5 18 Z "></path>
<path style=" fill:#4788C7;" d="M 32.5 19 C 36.085938 19 39 21.914063 39 25.5 C 39 29.085938 36.085938 32 32.5 32 C 28.914063 32 26 29.085938 26 25.5 C 26 21.914063 28.914063 19 32.5 19 M 32.5 18 C 28.359375 18 25 21.359375 25 25.5 C 25 29.640625 28.359375 33 32.5 33 C 36.640625 33 40 29.640625 40 25.5 C 40 21.359375 36.640625 18 32.5 18 Z "></path>
<path style=" fill:#98CCFD;" d="M 7.5 21 C 9.980469 21 12 23.019531 12 25.5 C 12 27.980469 9.980469 30 7.5 30 C 5.019531 30 3 27.980469 3 25.5 C 3 23.019531 5.019531 21 7.5 21 M 7.5 18 C 3.359375 18 0 21.359375 0 25.5 C 0 29.640625 3.359375 33 7.5 33 C 11.640625 33 15 29.640625 15 25.5 C 15 21.359375 11.640625 18 7.5 18 Z "></path>
<path style=" fill:#4788C7;" d="M 7.5 19 C 11.085938 19 14 21.914063 14 25.5 C 14 29.085938 11.085938 32 7.5 32 C 3.914063 32 1 29.085938 1 25.5 C 1 21.914063 3.914063 19 7.5 19 M 7.5 18 C 3.359375 18 0 21.359375 0 25.5 C 0 29.640625 3.359375 33 7.5 33 C 11.640625 33 15 29.640625 15 25.5 C 15 21.359375 11.640625 18 7.5 18 Z "></path>
<path style=" fill:#B6DCFE;" d="M 9.359375 18.832031 L 6.019531 14.5 L 11.351563 14.5 C 12.179688 14.5 12.921875 14.960938 13.289063 15.695313 L 14.859375 18.832031 Z "></path>
<path style=" fill:#4788C7;" d="M 11.351563 15 C 11.988281 15 12.558594 15.351563 12.84375 15.921875 L 14.050781 18.332031 L 9.605469 18.332031 L 7.035156 15 L 11.351563 15 M 11.351563 14 L 5 14 L 9.113281 19.332031 L 15.664063 19.332031 L 13.734375 15.472656 C 13.285156 14.570313 12.363281 14 11.351563 14 Z "></path>
<path style=" fill:#4788C7;" d="M 34.5 25.5 C 34.5 26.605469 33.605469 27.5 32.5 27.5 C 31.394531 27.5 30.5 26.605469 30.5 25.5 C 30.5 24.394531 31.394531 23.5 32.5 23.5 C 33.605469 23.5 34.5 24.394531 34.5 25.5 Z "></path>
<path style=" fill:#4788C7;" d="M 9.5 25.5 C 9.5 26.605469 8.605469 27.5 7.5 27.5 C 6.394531 27.5 5.5 26.605469 5.5 25.5 C 5.5 24.394531 6.394531 23.5 7.5 23.5 C 8.605469 23.5 9.5 24.394531 9.5 25.5 Z "></path>
<path style=" fill:#98CCFD;" d="M 9.5 24.5 L 9.5 22 C 9.5 21.941406 9.5 20.484375 8.261719 19.230469 C 7.164063 18.125 5.480469 17.542969 3.25 17.503906 L 1 14.5 L 5 14.5 C 7.664063 14.5 8.707031 15.503906 9.914063 16.671875 C 10.160156 16.902344 10.40625 17.140625 10.667969 17.375 L 10.8125 17.5 L 17.34375 17.5 L 18.082031 15.789063 C 18.683594 14.398438 20.054688 13.5 21.566406 13.5 L 27.085938 13.5 C 27.222656 14.101563 27.515625 15.269531 27.878906 16.265625 C 27.304688 18.15625 25.140625 23.5 19 23.5 L 18.882813 23.5 L 16.882813 24.5 Z "></path>
<path style=" fill:#4788C7;" d="M 26.6875 14 C 26.839844 14.613281 27.070313 15.484375 27.347656 16.277344 C 26.738281 18.195313 24.644531 23 19 23 L 18.765625 23 L 16.765625 24 L 10 24 L 10 22.011719 C 10.003906 21.835938 9.980469 20.253906 8.617188 18.878906 C 7.46875 17.71875 5.75 17.089844 3.507813 17.007813 L 2 15 L 5 15 C 7.460938 15 8.390625 15.894531 9.566406 17.027344 C 9.816406 17.269531 10.066406 17.511719 10.335938 17.746094 L 10.621094 18 L 17.671875 18 L 17.933594 17.398438 L 18.539063 15.988281 C 19.0625 14.78125 20.25 14 21.566406 14 L 26.6875 14 M 27.484375 13 L 21.566406 13 C 19.851563 13 18.304688 14.019531 17.621094 15.59375 L 17.015625 17 L 11 17 C 9.40625 15.589844 8.417969 14 5 14 C 3.050781 14 0 14 0 14 L 3 18 C 9.042969 18 9 22 9 22 L 9 25 L 17 25 L 19 24 C 26.125 24 28.148438 17.136719 28.402344 16.246094 C 27.878906 14.867188 27.484375 13 27.484375 13 Z "></path>
<path style="fill:none;stroke-width:1;stroke-linecap:round;stroke-linejoin:miter;stroke:#4788C7;stroke-opacity:1;stroke-miterlimit:10;" d="M 32.5 25.5 C 27.566406 18.980469 26.507813 10.921875 26.15625 8.378906 C 26.089844 7.882813 25.5 7.5 25 7.5 L 20.105469 7.5 "></path>
<path style=" fill:#4788C7;" d="M 23 7 L 20 7 C 19.449219 7 19 7.449219 19 8 C 19 8.550781 19.449219 9 20 9 L 22 9 C 22.550781 9 23 8.550781 23 8 Z "></path>
<path style="fill:none;stroke-width:1;stroke-linecap:butt;stroke-linejoin:miter;stroke:#4788C7;stroke-opacity:1;stroke-miterlimit:10;" d="M 17.5 17 L 17.5 25 "></path>
<path style=" fill:#DFF0FE;" d="M 5.5 27.5 L 5.5 24.5 L 15 24.5 C 15.828125 24.5 16.5 23.828125 16.5 23 L 16.5 22 C 16.5 21.171875 17.171875 20.5 18 20.5 C 18.828125 20.5 19.5 21.171875 19.5 22 L 19.5 23 C 19.5 25.480469 17.480469 27.5 15 27.5 Z "></path>
<path style=" fill:#4788C7;" d="M 18 21 C 18.550781 21 19 21.449219 19 22 L 19 23 C 19 25.207031 17.207031 27 15 27 L 6 27 L 6 25 L 15 25 C 16.101563 25 17 24.101563 17 23 L 17 22 C 17 21.449219 17.449219 21 18 21 M 18 20 C 16.894531 20 16 20.894531 16 22 L 16 23 C 16 23.550781 15.550781 24 15 24 L 5 24 L 5 28 L 15 28 C 17.761719 28 20 25.761719 20 23 L 20 22 C 20 20.894531 19.105469 20 18 20 Z "></path>
</g>
</svg>