<svg xmlns="http://www.w3.org/2000/svg" xmlns:xlink="http://www.w3.org/1999/xlink" viewBox="0 0 40 40" version="1.1">
<g id="surface1">
<path style=" fill:#4788C7;" d="M 11 10 L 6 10 L 6 7 C 6 6.449219 6.449219 6 7 6 L 10 6 C 10.550781 6 11 6.449219 11 7 Z "></path>
<path style=" fill:#4788C7;" d="M 34 10 L 29 10 L 29 7 C 29 6.449219 29.449219 6 30 6 L 33 6 C 33.550781 6 34 6.449219 34 7 Z "></path>
<path style=" fill:#4788C7;" d="M 5.332031 27 L 34.664063 27 L 34.664063 31 L 5.332031 31 Z "></path>
<path style=" fill:#DFF0FE;" d="M 37.5 30.5 C 37.5 32.15625 36.15625 33.5 34.5 33.5 C 32.84375 33.5 31.5 32.15625 31.5 30.5 C 31.5 28.84375 32.84375 27.5 34.5 27.5 C 36.15625 27.5 37.5 28.84375 37.5 30.5 Z "></path>
<path style=" fill:#4788C7;" d="M 34.5 28 C 35.878906 28 37 29.121094 37 30.5 C 37 31.878906 35.878906 33 34.5 33 C 33.121094 33 32 31.878906 32 30.5 C 32 29.121094 33.121094 28 34.5 28 M 34.5 27 C 32.566406 27 31 28.566406 31 30.5 C 31 32.433594 32.566406 34 34.5 34 C 36.433594 34 38 32.433594 38 30.5 C 38 28.566406 36.433594 27 34.5 27 Z "></path>
<path style=" fill:#DFF0FE;" d="M 30.5 30.5 C 30.5 32.15625 29.15625 33.5 27.5 33.5 C 25.84375 33.5 24.5 32.15625 24.5 30.5 C 24.5 28.84375 25.84375 27.5 27.5 27.5 C 29.15625 27.5 30.5 28.84375 30.5 30.5 Z "></path>
<path style=" fill:#4788C7;" d="M 27.5 28 C 28.878906 28 30 29.121094 30 30.5 C 30 31.878906 28.878906 33 27.5 33 C 26.121094 33 25 31.878906 25 30.5 C 25 29.121094 26.121094 28 27.5 28 M 27.5 27 C 25.566406 27 24 28.566406 24 30.5 C 24 32.433594 25.566406 34 27.5 34 C 29.433594 34 31 32.433594 31 30.5 C 31 28.566406 29.433594 27 27.5 27 Z "></path>
<path style=" fill:#DFF0FE;" d="M 15.5 30.5 C 15.5 32.15625 14.15625 33.5 12.5 33.5 C 10.84375 33.5 9.5 32.15625 9.5 30.5 C 9.5 28.84375 10.84375 27.5 12.5 27.5 C 14.15625 27.5 15.5 28.84375 15.5 30.5 Z "></path>
<path style=" fill:#4788C7;" d="M 12.5 28 C 13.878906 28 15 29.121094 15 30.5 C 15 31.878906 13.878906 33 12.5 33 C 11.121094 33 10 31.878906 10 30.5 C 10 29.121094 11.121094 28 12.5 28 M 12.5 27 C 10.566406 27 9 28.566406 9 30.5 C 9 32.433594 10.566406 34 12.5 34 C 14.433594 34 16 32.433594 16 30.5 C 16 28.566406 14.433594 27 12.5 27 Z "></path>
<path style=" fill:#DFF0FE;" d="M 8.5 30.5 C 8.5 32.15625 7.15625 33.5 5.5 33.5 C 3.84375 33.5 2.5 32.15625 2.5 30.5 C 2.5 28.84375 3.84375 27.5 5.5 27.5 C 7.15625 27.5 8.5 28.84375 8.5 30.5 Z "></path>
<path style=" fill:#4788C7;" d="M 5.5 28 C 6.878906 28 8 29.121094 8 30.5 C 8 31.878906 6.878906 33 5.5 33 C 4.121094 33 3 31.878906 3 30.5 C 3 29.121094 4.121094 28 5.5 28 M 5.5 27 C 3.566406 27 2 28.566406 2 30.5 C 2 32.433594 3.566406 34 5.5 34 C 7.433594 34 9 32.433594 9 30.5 C 9 28.566406 7.433594 27 5.5 27 Z "></path>
<path style=" fill:#98CCFD;" d="M 1 28.5 C 0.722656 28.5 0.5 28.273438 0.5 28 L 0.5 11 C 0.5 9.070313 2.070313 7.5 4 7.5 L 36 7.5 C 37.929688 7.5 39.5 9.070313 39.5 11 L 39.5 28 C 39.5 28.273438 39.277344 28.5 39 28.5 Z "></path>
<path style=" fill:#4788C7;" d="M 36 8 C 37.652344 8 39 9.347656 39 11 L 39 28 L 1 28 L 1 11 C 1 9.347656 2.347656 8 4 8 L 36 8 M 36 7 L 4 7 C 1.789063 7 0 8.789063 0 11 L 0 28 C 0 28.550781 0.449219 29 1 29 L 39 29 C 39.550781 29 40 28.550781 40 28 L 40 11 C 40 8.789063 38.210938 7 36 7 Z "></path>
<path style=" fill:#DFF0FE;" d="M 30 20.5 C 29.171875 20.5 28.5 19.828125 28.5 19 L 28.5 13 C 28.5 12.171875 29.171875 11.5 30 11.5 L 34 11.5 C 34.828125 11.5 35.5 12.171875 35.5 13 L 35.5 19 C 35.5 19.828125 34.828125 20.5 34 20.5 Z "></path>
<path style=" fill:#4788C7;" d="M 34 12 C 34.550781 12 35 12.449219 35 13 L 35 19 C 35 19.550781 34.550781 20 34 20 L 30 20 C 29.449219 20 29 19.550781 29 19 L 29 13 C 29 12.449219 29.449219 12 30 12 L 34 12 M 34 11 L 30 11 C 28.894531 11 28 11.894531 28 13 L 28 19 C 28 20.105469 28.894531 21 30 21 L 34 21 C 35.105469 21 36 20.105469 36 19 L 36 13 C 36 11.894531 35.105469 11 34 11 Z "></path>
<path style=" fill:#DFF0FE;" d="M 23 20.5 C 22.171875 20.5 21.5 19.828125 21.5 19 L 21.5 13 C 21.5 12.171875 22.171875 11.5 23 11.5 L 27 11.5 C 27.828125 11.5 28.5 12.171875 28.5 13 L 28.5 19 C 28.5 19.828125 27.828125 20.5 27 20.5 Z "></path>
<path style=" fill:#4788C7;" d="M 27 12 C 27.550781 12 28 12.449219 28 13 L 28 19 C 28 19.550781 27.550781 20 27 20 L 23 20 C 22.449219 20 22 19.550781 22 19 L 22 13 C 22 12.449219 22.449219 12 23 12 L 27 12 M 27 11 L 23 11 C 21.894531 11 21 11.894531 21 13 L 21 19 C 21 20.105469 21.894531 21 23 21 L 27 21 C 28.105469 21 29 20.105469 29 19 L 29 13 C 29 11.894531 28.105469 11 27 11 Z "></path>
<path style=" fill:#DFF0FE;" d="M 6 20.5 C 5.171875 20.5 4.5 19.828125 4.5 19 L 4.5 13 C 4.5 12.171875 5.171875 11.5 6 11.5 L 10 11.5 C 10.828125 11.5 11.5 12.171875 11.5 13 L 11.5 19 C 11.5 19.828125 10.828125 20.5 10 20.5 Z "></path>
<path style=" fill:#4788C7;" d="M 10 12 C 10.550781 12 11 12.449219 11 13 L 11 19 C 11 19.550781 10.550781 20 10 20 L 6 20 C 5.449219 20 5 19.550781 5 19 L 5 13 C 5 12.449219 5.449219 12 6 12 L 10 12 M 10 11 L 6 11 C 4.894531 11 4 11.894531 4 13 L 4 19 C 4 20.105469 4.894531 21 6 21 L 10 21 C 11.105469 21 12 20.105469 12 19 L 12 13 C 12 11.894531 11.105469 11 10 11 Z "></path>
<path style=" fill:#DFF0FE;" d="M 13 20.5 C 12.171875 20.5 11.5 19.828125 11.5 19 L 11.5 13 C 11.5 12.171875 12.171875 11.5 13 11.5 L 17 11.5 C 17.828125 11.5 18.5 12.171875 18.5 13 L 18.5 19 C 18.5 19.828125 17.828125 20.5 17 20.5 Z "></path>
<path style=" fill:#4788C7;" d="M 17 12 C 17.550781 12 18 12.449219 18 13 L 18 19 C 18 19.550781 17.550781 20 17 20 L 13 20 C 12.449219 20 12 19.550781 12 19 L 12 13 C 12 12.449219 12.449219 12 13 12 L 17 12 M 17 11 L 13 11 C 11.894531 11 11 11.894531 11 13 L 11 19 C 11 20.105469 11.894531 21 13 21 L 17 21 C 18.105469 21 19 20.105469 19 19 L 19 13 C 19 11.894531 18.105469 11 17 11 Z "></path>
<path style=" fill:#4788C7;" d="M 35.5 25 L 4.5 25 C 4.226563 25 4 24.773438 4 24.5 C 4 24.226563 4.226563 24 4.5 24 L 35.5 24 C 35.773438 24 36 24.226563 36 24.5 C 36 24.773438 35.773438 25 35.5 25 Z "></path>
</g>
</svg>