<svg xmlns="http://www.w3.org/2000/svg" xmlns:xlink="http://www.w3.org/1999/xlink" viewBox="0 0 40 40" version="1.1">
<g id="surface1">
<path style=" fill:#4788C7;" d="M 7.90625 40 C 8.199219 40 8.476563 39.859375 8.644531 39.621094 L 13.375 33 L 11.144531 33 L 7.171875 38.566406 C 6.742188 39.164063 7.171875 40 7.90625 40 Z "></path>
<path style=" fill:#4788C7;" d="M 28.855469 33 L 26.625 33 L 31.355469 39.621094 C 31.523438 39.859375 31.800781 40 32.09375 40 C 32.828125 40 33.257813 39.164063 32.828125 38.566406 Z "></path>
<path style=" fill:#98CCFD;" d="M 10 36.5 C 7.519531 36.5 5.5 34.480469 5.5 32 L 5.5 9 C 5.5 6.519531 7.519531 4.5 10 4.5 L 15.75 4.5 L 15.878906 4.199219 C 16.597656 2.558594 18.214844 1.5 20 1.5 C 21.785156 1.5 23.402344 2.558594 24.121094 4.199219 L 24.25 4.5 L 30 4.5 C 32.480469 4.5 34.5 6.519531 34.5 9 L 34.5 32 C 34.5 34.480469 32.480469 36.5 30 36.5 Z "></path>
<path style=" fill:#4788C7;" d="M 20 2 C 21.585938 2 23.023438 2.941406 23.660156 4.402344 L 23.925781 5 L 30 5 C 32.207031 5 34 6.792969 34 9 L 34 32 C 34 34.207031 32.207031 36 30 36 L 10 36 C 7.792969 36 6 34.207031 6 32 L 6 9 C 6 6.792969 7.792969 5 10 5 L 16.074219 5 L 16.339844 4.402344 C 16.976563 2.941406 18.414063 2 20 2 M 20 1 C 17.949219 1 16.195313 2.234375 15.421875 4 L 10 4 C 7.238281 4 5 6.238281 5 9 L 5 32 C 5 34.761719 7.238281 37 10 37 L 30 37 C 32.761719 37 35 34.761719 35 32 L 35 9 C 35 6.238281 32.761719 4 30 4 L 24.578125 4 C 23.804688 2.234375 22.050781 1 20 1 Z "></path>
<path style=" fill:#DFF0FE;" d="M 11 23.5 C 9.621094 23.5 8.5 22.378906 8.5 21 L 8.5 13 C 8.5 11.621094 9.621094 10.5 11 10.5 L 18.5 10.5 L 18.5 23.5 Z "></path>
<path style=" fill:#4788C7;" d="M 18 11 L 18 23 L 11 23 C 9.898438 23 9 22.101563 9 21 L 9 13 C 9 11.898438 9.898438 11 11 11 L 18 11 M 19 10 L 11 10 C 9.34375 10 8 11.34375 8 13 L 8 21 C 8 22.65625 9.34375 24 11 24 L 19 24 Z "></path>
<path style=" fill:#DFF0FE;" d="M 21.5 23.5 L 21.5 10.5 L 29 10.5 C 30.378906 10.5 31.5 11.621094 31.5 13 L 31.5 21 C 31.5 22.378906 30.378906 23.5 29 23.5 Z "></path>
<path style=" fill:#4788C7;" d="M 29 11 C 30.101563 11 31 11.898438 31 13 L 31 21 C 31 22.101563 30.101563 23 29 23 L 22 23 L 22 11 L 29 11 M 29 10 L 21 10 L 21 24 L 29 24 C 30.65625 24 32 22.65625 32 21 L 32 13 C 32 11.34375 30.65625 10 29 10 Z "></path>
<path style=" fill:#FFFFFF;" d="M 22 6 C 22 7.105469 21.105469 8 20 8 C 18.894531 8 18 7.105469 18 6 C 18 4.894531 18.894531 4 20 4 C 21.105469 4 22 4.894531 22 6 Z "></path>
<path style=" fill:#FFFFFF;" d="M 31 29.5 C 31 30.878906 29.878906 32 28.5 32 C 27.121094 32 26 30.878906 26 29.5 C 26 28.121094 27.121094 27 28.5 27 C 29.878906 27 31 28.121094 31 29.5 Z "></path>
<path style=" fill:#FFFFFF;" d="M 14 29.5 C 14 30.878906 12.878906 32 11.5 32 C 10.121094 32 9 30.878906 9 29.5 C 9 28.121094 10.121094 27 11.5 27 C 12.878906 27 14 28.121094 14 29.5 Z "></path>
</g>
</svg>