<svg xmlns="http://www.w3.org/2000/svg" xmlns:xlink="http://www.w3.org/1999/xlink" viewBox="0 0 40 40" version="1.1">
<g id="surface1">
<path style=" fill:#DFF0FE;" d="M 4.5 31.5 L 4.5 5.347656 L 12.089844 2.5 L 20.5625 2.5 L 22.542969 17.34375 L 35.128906 22.949219 C 37.179688 23.808594 38.5 25.785156 38.5 28 L 38.5 31.523438 Z "></path>
<path style=" fill:#4788C7;" d="M 20.125 3 L 22.007813 17.132813 L 22.082031 17.6875 L 22.59375 17.914063 L 34.945313 23.417969 C 36.800781 24.191406 38 25.988281 38 28 L 38 31.023438 L 5 31 L 5 5.691406 L 12.179688 3 L 20.125 3 M 21 2 L 12 2 L 4 5 L 4 32 L 39 32.023438 L 39 28 C 39 25.59375 37.550781 23.421875 35.328125 22.492188 L 23 17 Z "></path>
<path style=" fill:#98CCFD;" d="M 4 18 L 13.585938 18 C 15.925781 18 18.113281 19.171875 19.414063 21.121094 L 26 31 L 26 32 L 4 32 Z "></path>
<path style=" fill:#DFF0FE;" d="M 17 25 C 17 27.210938 15.210938 29 13 29 C 10.789063 29 9 27.210938 9 25 C 9 22.789063 10.789063 21 13 21 C 15.210938 21 17 22.789063 17 25 Z "></path>
<path style=" fill:#4788C7;" d="M 14 25 C 14 25.550781 13.550781 26 13 26 C 12.449219 26 12 25.550781 12 25 C 12 24.449219 12.449219 24 13 24 C 13.550781 24 14 24.449219 14 25 Z "></path>
<path style=" fill:#98CCFD;" d="M 4.5 31.5 L 39.5 31.5 L 39.5 34.5 L 4.5 34.5 Z "></path>
<path style=" fill:#4788C7;" d="M 39 32 L 39 34 L 5 34 L 5 32 L 39 32 M 40 31 L 4 31 L 4 35 L 40 35 Z "></path>
<path style=" fill:#4788C7;" d="M 21 9 L 12.5 9 C 12.222656 9 12 8.777344 12 8.5 C 12 8.222656 12.222656 8 12.5 8 L 21 8 Z "></path>
<path style=" fill:#4788C7;" d="M 22 12 L 12.5 12 C 12.222656 12 12 11.777344 12 11.5 C 12 11.222656 12.222656 11 12.5 11 L 22 11 Z "></path>
<path style=" fill:#4788C7;" d="M 22 15 L 12.5 15 C 12.222656 15 12 14.777344 12 14.5 C 12 14.222656 12.222656 14 12.5 14 L 22 14 Z "></path>
<path style=" fill:#4788C7;" d="M 3.5 21.832031 L 4.5 21.832031 L 4.5 25.832031 L 3.5 25.832031 Z "></path>
<path style=" fill:#4788C7;" d="M 4 22.332031 L 4 25.332031 L 4 22.332031 M 5 21.332031 L 3 21.332031 L 3 26.332031 L 5 26.332031 Z "></path>
<path style=" fill:#98CCFD;" d="M 0.5 5.5 L 7.5 5.5 L 7.5 23.5 L 0.5 23.5 Z "></path>
<path style=" fill:#4788C7;" d="M 7 6 L 7 23 L 1 23 L 1 6 L 7 6 M 8 5 L 0 5 L 0 24 L 8 24 Z "></path>
<path style=" fill:#4788C7;" d="M 0 8 L 8 8 L 8 9 L 0 9 Z "></path>
<path style=" fill:#4788C7;" d="M 0 11 L 8 11 L 8 12 L 0 12 Z "></path>
<path style=" fill:#FFFFFF;" d="M 4.007813 37.300781 C 3.257813 36.523438 1.5 34.5 1.5 32.667969 C 1.5 31.472656 2.621094 30.5 4 30.5 C 5.378906 30.5 6.5 31.472656 6.5 32.667969 C 6.5 34.585938 4.757813 36.546875 4.007813 37.300781 Z "></path>
<path style=" fill:#4788C7;" d="M 4 31 C 5.101563 31 6 31.746094 6 32.667969 C 6 34.066406 4.871094 35.628906 4.011719 36.578125 C 3.144531 35.601563 2 34.011719 2 32.667969 C 2 31.746094 2.898438 31 4 31 M 4 30 C 2.34375 30 1 31.195313 1 32.667969 C 1 35.238281 4 38 4 38 C 4 38 7 35.355469 7 32.667969 C 7 31.195313 5.65625 30 4 30 Z "></path>
<path style=" fill:#98CCFD;" d="M 0.5 31.5 L 0.5 29 C 0.5 27.070313 2.070313 25.5 4 25.5 C 5.929688 25.5 7.5 27.070313 7.5 29 L 7.5 31.5 Z "></path>
<path style=" fill:#4788C7;" d="M 4 26 C 5.652344 26 7 27.347656 7 29 L 7 31 L 1 31 L 1 29 C 1 27.347656 2.347656 26 4 26 M 4 25 C 1.789063 25 0 26.789063 0 29 L 0 32 L 8 32 L 8 29 C 8 26.789063 6.210938 25 4 25 Z "></path>
</g>
</svg>