<svg xmlns="http://www.w3.org/2000/svg" xmlns:xlink="http://www.w3.org/1999/xlink" viewBox="0 0 40 40" version="1.1">
<g id="surface1">
<path style=" fill:#4788C7;" d="M 6 2 L 7 2 L 7 21 L 6 21 Z "></path>
<path style=" fill:#DFF0FE;" d="M 1.703125 16.5 C 2.011719 15.53125 2.5 13.644531 2.5 11.5 C 2.5 9.355469 2.007813 7.46875 1.703125 6.5 L 15.664063 6.5 C 15.980469 7.289063 16.785156 9.554688 16.785156 11.855469 C 16.785156 14.117188 16.015625 15.878906 15.703125 16.5 Z "></path>
<path style=" fill:#4788C7;" d="M 15.324219 7 C 15.671875 7.941406 16.285156 9.882813 16.285156 11.855469 C 16.285156 13.730469 15.722656 15.257813 15.386719 16 L 2.371094 16 C 2.664063 14.917969 3 13.296875 3 11.5 C 3 9.703125 2.664063 8.082031 2.371094 7 L 15.324219 7 M 16 6 L 1 6 C 1 6 2 8.507813 2 11.5 C 2 14.492188 1 17 1 17 L 16 17 C 16 17 17.285156 14.847656 17.285156 11.855469 C 17.285156 8.863281 16 6 16 6 Z "></path>
<path style=" fill:#4788C7;" d="M 30 5 L 31 5 L 31 25.355469 L 30 25.355469 Z "></path>
<path style=" fill:#4788C7;" d="M 17 1 L 18 1 L 18 25.429688 L 17 25.429688 Z "></path>
<path style=" fill:#98CCFD;" d="M 4.519531 33.5 C 4.574219 31.734375 4.582031 25.976563 2.765625 21.5 L 8.910156 21.5 L 9.941406 23.296875 C 10.339844 24.046875 11.140625 24.5 12.078125 24.5 L 26.207031 24.5 L 28.183594 22.523438 L 36.15625 23.410156 C 33.132813 28.367188 32.609375 32.167969 32.519531 33.5 Z "></path>
<path style=" fill:#4788C7;" d="M 8.621094 22 L 9.492188 23.519531 C 9.984375 24.445313 10.949219 25 12.078125 25 L 26.414063 25 L 28.367188 23.046875 L 35.328125 23.820313 C 32.886719 28.050781 32.234375 31.398438 32.0625 33 L 5.03125 33 C 5.058594 30.898438 4.941406 26.066406 3.488281 22 L 8.621094 22 M 9.199219 21 L 2 21 C 4.449219 26.234375 4 34 4 34 L 33 34 C 33 34 32.90625 29.375 37 23 L 28 22 L 26 24 L 12.078125 24 C 11.363281 24 10.710938 23.679688 10.375 23.050781 Z "></path>
<path style=" fill:#98CCFD;" d="M 3 23.5 C 2.230469 23.5 1.5 22.769531 1.5 22 L 1.5 19.5 L 7.71875 19.5 L 10.117188 23.5 Z "></path>
<path style=" fill:#4788C7;" d="M 7.433594 20 L 9.234375 23 L 3 23 C 2.515625 23 2 22.484375 2 22 L 2 20 L 7.433594 20 M 8 19 L 1 19 L 1 22 C 1 23.039063 1.960938 24 3 24 L 11 24 Z "></path>
<path style=" fill:#98CCFD;" d="M 27 23.5 L 29.25 20.5 L 38.230469 20.5 L 37.332031 22.507813 C 37.125 23.121094 36.597656 23.5 36 23.5 Z "></path>
<path style=" fill:#4788C7;" d="M 37.457031 21 L 36.875 22.304688 L 36.855469 22.347656 L 36.839844 22.394531 C 36.71875 22.757813 36.382813 23 36 23 L 28 23 L 29.5 21 L 37.457031 21 M 39 20 L 29 20 L 26 24 L 36 24 C 36.8125 24 37.53125 23.480469 37.785156 22.710938 Z "></path>
<path style=" fill:#DFF0FE;" d="M 11.652344 20.5 C 11.941406 19.308594 12.5 16.570313 12.5 13 C 12.5 9.429688 11.941406 6.691406 11.652344 5.5 L 26.617188 5.5 C 26.863281 6.460938 27.5 9.296875 27.5 13 C 27.5 16.703125 26.863281 19.539063 26.617188 20.5 Z "></path>
<path style=" fill:#4788C7;" d="M 26.226563 6 C 26.503906 7.183594 27 9.75 27 13 C 27 16.25 26.503906 18.816406 26.226563 20 L 12.277344 20 C 12.585938 18.582031 13 16.09375 13 13 C 13 9.90625 12.585938 7.417969 12.277344 6 L 26.226563 6 M 27 5 L 11 5 C 11 5 12 8.285156 12 13 C 12 17.714844 11 21 11 21 L 27 21 C 27 21 28 17.714844 28 13 C 28 8.285156 27 5 27 5 Z "></path>
<path style=" fill:#DFF0FE;" d="M 23.714844 18.5 C 24.023438 17.578125 24.5 15.855469 24.5 14 C 24.5 12.144531 24.023438 10.421875 23.714844 9.5 L 36.757813 9.5 C 37.191406 10.082031 38.5 11.988281 38.5 14 C 38.5 16.015625 37.195313 17.921875 36.757813 18.5 Z "></path>
<path style=" fill:#4788C7;" d="M 36.503906 10 C 36.996094 10.699219 38 12.324219 38 14 C 38 15.675781 36.996094 17.300781 36.503906 18 L 24.394531 18 C 24.683594 16.992188 25 15.539063 25 14 C 25 12.460938 24.683594 11.007813 24.394531 10 L 36.503906 10 M 37 9 L 23 9 C 23 9 24 11.382813 24 14 C 24 16.617188 23 19 23 19 L 37 19 C 37 19 39 16.617188 39 14 C 39 11.382813 37 9 37 9 Z "></path>
<path style=" fill:#4788C7;" d="M 6 6.070313 C 8.625 3.625 8.324219 6.558594 12 5 C 10.621094 4.980469 9.4375 2 7.355469 2 C 6.09375 2 6 2 6 2 Z "></path>
<path style=" fill:#4788C7;" d="M 30 9.070313 C 32.625 6.625 32.324219 9.558594 36 8 C 34.621094 7.980469 33.4375 5 31.355469 5 C 30.09375 5 30 5 30 5 Z "></path>
<path style=" fill:#4788C7;" d="M 17 5 C 21.132813 2.425781 22.769531 4.980469 26.5 3.5 C 25.121094 3.480469 22.003906 1 18.355469 1 C 17.09375 1 17 1 17 1 Z "></path>
<path style=" fill:#B6DCFE;" d="M 1 39 L 39 39 L 39 31.878906 C 37.691406 31.613281 36.148438 31 35 31 C 33.542969 31 31.4375 32 30 32 C 28.5625 32 26.457031 31 25 31 C 23.542969 31 21.4375 32 20 32 C 18.5625 32 16.457031 31 15 31 C 13.542969 31 11.4375 32 10 32 C 8.5625 32 6.457031 31 5 31 C 3.851563 31 2.308594 31.613281 1 31.878906 Z "></path>
<path style="fill:none;stroke-width:1;stroke-linecap:round;stroke-linejoin:miter;stroke:#4788C7;stroke-opacity:1;stroke-miterlimit:10;" d="M 1.5 32.277344 C 1.863281 32.191406 2.238281 32.085938 2.613281 31.980469 C 3.460938 31.746094 4.335938 31.5 5 31.5 C 5.664063 31.5 6.535156 31.746094 7.382813 31.984375 C 8.28125 32.238281 9.214844 32.5 10 32.5 C 10.785156 32.5 11.71875 32.238281 12.617188 31.984375 C 13.464844 31.746094 14.335938 31.5 15 31.5 C 15.664063 31.5 16.535156 31.746094 17.382813 31.984375 C 18.28125 32.238281 19.214844 32.5 20 32.5 C 20.785156 32.5 21.71875 32.238281 22.617188 31.984375 C 23.464844 31.746094 24.335938 31.5 25 31.5 C 25.664063 31.5 26.535156 31.746094 27.382813 31.984375 C 28.28125 32.238281 29.214844 32.5 30 32.5 C 30.785156 32.5 31.71875 32.238281 32.617188 31.984375 C 33.464844 31.746094 34.335938 31.5 35 31.5 C 35.664063 31.5 36.539063 31.746094 37.386719 31.980469 C 37.761719 32.085938 38.136719 32.191406 38.5 32.277344 "></path>
</g>
</svg>