<svg xmlns="http://www.w3.org/2000/svg" xmlns:xlink="http://www.w3.org/1999/xlink" viewBox="0 0 40 40" version="1.1">
<g id="surface1">
<path style=" fill:#4788C7;" d="M 19 3.203125 L 21 3.203125 L 21 23.847656 L 19 23.847656 Z "></path>
<path style=" fill:#DFF0FE;" d="M 10.5 38.5 C 9.398438 38.5 8.5 37.601563 8.5 36.5 L 8.5 24.972656 C 8.5 23.867188 9.398438 22.972656 10.5 22.972656 C 11.601563 22.972656 12.5 23.867188 12.5 24.972656 L 12.5 36.5 C 12.5 37.601563 11.601563 38.5 10.5 38.5 Z "></path>
<path style=" fill:#4788C7;" d="M 10.5 23.472656 C 11.328125 23.472656 12 24.144531 12 24.972656 L 12 36.5 C 12 37.328125 11.328125 38 10.5 38 C 9.671875 38 9 37.328125 9 36.5 L 9 24.972656 C 9 24.144531 9.671875 23.472656 10.5 23.472656 M 10.5 22.472656 C 9.117188 22.472656 8 23.589844 8 24.972656 L 8 36.5 C 8 37.882813 9.117188 39 10.5 39 C 11.882813 39 13 37.882813 13 36.5 L 13 24.972656 C 13 23.589844 11.882813 22.472656 10.5 22.472656 Z "></path>
<path style=" fill:#DFF0FE;" d="M 29.5 38.5 C 28.398438 38.5 27.5 37.601563 27.5 36.5 L 27.5 24.972656 C 27.5 23.867188 28.398438 22.972656 29.5 22.972656 C 30.601563 22.972656 31.5 23.867188 31.5 24.972656 L 31.5 36.5 C 31.5 37.601563 30.601563 38.5 29.5 38.5 Z "></path>
<path style=" fill:#4788C7;" d="M 29.5 23.472656 C 30.328125 23.472656 31 24.144531 31 24.972656 L 31 36.5 C 31 37.328125 30.328125 38 29.5 38 C 28.671875 38 28 37.328125 28 36.5 L 28 24.972656 C 28 24.144531 28.671875 23.472656 29.5 23.472656 M 29.5 22.472656 C 28.117188 22.472656 27 23.589844 27 24.972656 L 27 36.5 C 27 37.882813 28.117188 39 29.5 39 C 30.882813 39 32 37.882813 32 36.5 L 32 24.972656 C 32 23.589844 30.882813 22.472656 29.5 22.472656 Z "></path>
<path style=" fill:#B6DCFE;" d="M 12.367188 33.5 L 8.675781 21.5 L 9.96875 21.5 C 11.683594 21.5 13.140625 22.667969 13.511719 24.34375 L 14.363281 28.5 L 17.5 28.5 L 17.5 18.5 L 22.5 18.5 L 22.5 28.5 L 25.636719 28.5 L 26.488281 24.335938 C 26.859375 22.667969 28.316406 21.5 30.035156 21.5 L 31.324219 21.5 L 27.632813 33.5 Z "></path>
<path style=" fill:#4788C7;" d="M 22 19 L 22 29 L 26.046875 29 L 26.210938 28.199219 L 26.976563 24.453125 C 27.296875 23.007813 28.554688 22 30.035156 22 L 30.644531 22 L 27.261719 33 L 12.738281 33 L 9.355469 22 L 9.964844 22 C 11.445313 22 12.703125 23.007813 13.019531 24.4375 L 13.789063 28.199219 L 13.953125 29 L 18 29 L 18 19 L 22 19 M 23 18 L 17 18 L 17 28 L 14.769531 28 L 14 24.234375 C 13.578125 22.34375 11.902344 21 9.964844 21 L 8 21 L 12 34 L 28 34 L 32 21 L 30.035156 21 C 28.097656 21 26.421875 22.34375 26 24.234375 L 25.230469 28 L 23 28 Z "></path>
<path style="fill:none;stroke-width:1.5;stroke-linecap:round;stroke-linejoin:miter;stroke:#4788C7;stroke-opacity:1;stroke-miterlimit:10;" d="M 9.75 4.25 L 14.5 2.75 L 20 4.25 L 25.5 2.75 L 30.25 4.25 "></path>
</g>
</svg>