<svg xmlns="http://www.w3.org/2000/svg" xmlns:xlink="http://www.w3.org/1999/xlink" viewBox="0 0 40 40" version="1.1">
<g id="surface1">
<path style=" fill:#98CCFD;" d="M 2.667969 30.5 C 1.472656 30.5 0.5 29.527344 0.5 28.332031 L 0.5 9.667969 C 0.5 8.472656 1.472656 7.5 2.667969 7.5 L 32.441406 7.5 C 34.367188 7.5 36.109375 8.640625 36.875 10.40625 L 39.097656 15.515625 C 39.363281 16.128906 39.5 16.777344 39.5 17.441406 L 39.5 28.332031 C 39.5 29.527344 38.527344 30.5 37.332031 30.5 Z "></path>
<path style=" fill:#4788C7;" d="M 32.445313 8 C 34.167969 8 35.730469 9.023438 36.417969 10.605469 L 38.640625 15.714844 C 38.878906 16.265625 39 16.84375 39 17.445313 L 39 28.335938 C 39 29.253906 38.253906 30 37.332031 30 L 2.667969 30 C 2.222656 30 1.804688 29.828125 1.488281 29.511719 C 1.171875 29.195313 1 28.777344 1 28.332031 L 1 9.667969 C 1 8.746094 1.746094 8 2.667969 8 L 32.445313 8 M 32.445313 7 L 2.667969 7 C 1.195313 7 0 8.195313 0 9.667969 L 0 28.335938 C 0 29.804688 1.195313 31 2.667969 31 L 37.335938 31 C 38.804688 31 40 29.804688 40 28.332031 L 40 17.441406 C 40 16.710938 39.847656 15.988281 39.558594 15.316406 L 37.335938 10.203125 C 36.488281 8.257813 34.566406 7 32.445313 7 Z "></path>
<path style=" fill:#DFF0FE;" d="M 30.332031 20.5 C 29.875 20.5 29.5 20.125 29.5 19.667969 L 29.5 11.332031 C 29.5 10.875 29.875 10.5 30.332031 10.5 L 36.769531 10.5 L 39.097656 15.847656 C 39.363281 16.460938 39.5 17.109375 39.5 17.777344 L 39.5 20.5 Z "></path>
<path style=" fill:#4788C7;" d="M 36.445313 11 L 38.640625 16.046875 C 38.878906 16.597656 39 17.179688 39 17.777344 L 39 20 L 30.332031 20 C 30.214844 20 30.132813 19.9375 30.097656 19.902344 C 30.0625 19.867188 30 19.785156 30 19.667969 L 30 11.335938 C 30 11.148438 30.148438 11 30.335938 11 L 36.445313 11 M 37.101563 10 L 30.335938 10 C 29.597656 10 29 10.597656 29 11.332031 L 29 19.664063 C 29 20.402344 29.597656 21 30.332031 21 L 40 21 L 40 17.777344 C 40 17.042969 39.847656 16.320313 39.558594 15.648438 Z "></path>
<path style=" fill:#DFF0FE;" d="M 35.5 30.5 C 35.5 32.710938 33.710938 34.5 31.5 34.5 C 29.289063 34.5 27.5 32.710938 27.5 30.5 C 27.5 28.289063 29.289063 26.5 31.5 26.5 C 33.710938 26.5 35.5 28.289063 35.5 30.5 Z "></path>
<path style=" fill:#4788C7;" d="M 31.5 27 C 33.429688 27 35 28.570313 35 30.5 C 35 32.429688 33.429688 34 31.5 34 C 29.570313 34 28 32.429688 28 30.5 C 28 28.570313 29.570313 27 31.5 27 M 31.5 26 C 29.015625 26 27 28.015625 27 30.5 C 27 32.984375 29.015625 35 31.5 35 C 33.984375 35 36 32.984375 36 30.5 C 36 28.015625 33.984375 26 31.5 26 Z "></path>
<path style=" fill:#4788C7;" d="M 33 30.5 C 33 31.328125 32.328125 32 31.5 32 C 30.671875 32 30 31.328125 30 30.5 C 30 29.671875 30.671875 29 31.5 29 C 32.328125 29 33 29.671875 33 30.5 Z "></path>
<path style=" fill:#DFF0FE;" d="M 12.5 30.5 C 12.5 32.710938 10.710938 34.5 8.5 34.5 C 6.289063 34.5 4.5 32.710938 4.5 30.5 C 4.5 28.289063 6.289063 26.5 8.5 26.5 C 10.710938 26.5 12.5 28.289063 12.5 30.5 Z "></path>
<path style=" fill:#4788C7;" d="M 8.5 27 C 10.429688 27 12 28.570313 12 30.5 C 12 32.429688 10.429688 34 8.5 34 C 6.570313 34 5 32.429688 5 30.5 C 5 28.570313 6.570313 27 8.5 27 M 8.5 26 C 6.015625 26 4 28.015625 4 30.5 C 4 32.984375 6.015625 35 8.5 35 C 10.984375 35 13 32.984375 13 30.5 C 13 28.015625 10.984375 26 8.5 26 Z "></path>
<path style=" fill:#4788C7;" d="M 10 30.5 C 10 31.328125 9.328125 32 8.5 32 C 7.671875 32 7 31.328125 7 30.5 C 7 29.671875 7.671875 29 8.5 29 C 9.328125 29 10 29.671875 10 30.5 Z "></path>
<path style=" fill:#DFF0FE;" d="M 17.5 20.5 C 16.949219 20.5 16.5 20.050781 16.5 19.5 L 16.5 11.5 C 16.5 10.949219 16.949219 10.5 17.5 10.5 L 25.5 10.5 C 26.050781 10.5 26.5 10.949219 26.5 11.5 L 26.5 19.5 C 26.5 20.050781 26.050781 20.5 25.5 20.5 Z "></path>
<path style=" fill:#4788C7;" d="M 25.5 11 C 25.777344 11 26 11.222656 26 11.5 L 26 19.5 C 26 19.777344 25.777344 20 25.5 20 L 17.5 20 C 17.222656 20 17 19.777344 17 19.5 L 17 11.5 C 17 11.222656 17.222656 11 17.5 11 L 25.5 11 M 25.5 10 L 17.5 10 C 16.671875 10 16 10.671875 16 11.5 L 16 19.5 C 16 20.328125 16.671875 21 17.5 21 L 25.5 21 C 26.328125 21 27 20.328125 27 19.5 L 27 11.5 C 27 10.671875 26.328125 10 25.5 10 Z "></path>
<path style=" fill:#DFF0FE;" d="M 4.5 20.5 C 3.949219 20.5 3.5 20.050781 3.5 19.5 L 3.5 11.5 C 3.5 10.949219 3.949219 10.5 4.5 10.5 L 12.5 10.5 C 13.050781 10.5 13.5 10.949219 13.5 11.5 L 13.5 19.5 C 13.5 20.050781 13.050781 20.5 12.5 20.5 Z "></path>
<path style=" fill:#4788C7;" d="M 12.5 11 C 12.777344 11 13 11.222656 13 11.5 L 13 19.5 C 13 19.777344 12.777344 20 12.5 20 L 4.5 20 C 4.222656 20 4 19.777344 4 19.5 L 4 11.5 C 4 11.222656 4.222656 11 4.5 11 L 12.5 11 M 12.5 10 L 4.5 10 C 3.671875 10 3 10.671875 3 11.5 L 3 19.5 C 3 20.328125 3.671875 21 4.5 21 L 12.5 21 C 13.328125 21 14 20.328125 14 19.5 L 14 11.5 C 14 10.671875 13.328125 10 12.5 10 Z "></path>
<path style=" fill:#FFFFFF;" d="M 1.5 25 L 1 25 L 1 22 L 1.5 22 C 2.328125 22 3 22.671875 3 23.5 C 3 24.328125 2.328125 25 1.5 25 Z "></path>
<path style=" fill:#FFFFFF;" d="M 38.5 22 L 39 22 L 39 25 L 38.5 25 C 37.671875 25 37 24.328125 37 23.5 C 37 22.671875 37.671875 22 38.5 22 Z "></path>
</g>
</svg>