<svg xmlns="http://www.w3.org/2000/svg" xmlns:xlink="http://www.w3.org/1999/xlink" viewBox="0 0 40 40" version="1.1">
<g id="surface1">
<path style=" fill:#B6DCFE;" d="M 1.5 15.5 L 6.285156 15.5 L 6.285156 18.5 L 1.5 18.5 Z "></path>
<path style=" fill:#4788C7;" d="M 5.785156 16 L 5.785156 18 L 2 18 L 2 16 L 5.785156 16 M 6.785156 15 L 1 15 L 1 19 L 6.785156 19 Z "></path>
<path style=" fill:#B6DCFE;" d="M 1.5 21.5 L 6.285156 21.5 L 6.285156 24.5 L 1.5 24.5 Z "></path>
<path style=" fill:#4788C7;" d="M 5.785156 22 L 5.785156 24 L 2 24 L 2 22 L 5.785156 22 M 6.785156 21 L 1 21 L 1 25 L 6.785156 25 Z "></path>
<path style=" fill:#98CCFD;" d="M 5.5 35.5 L 5.5 25.5 L 4.5 25.5 L 4.5 14.5 L 5.5 14.5 L 5.5 4.5 L 8.523438 4.5 C 10.175781 4.5 11.710938 5.304688 12.625 6.65625 L 17.785156 14.5 L 29.570313 14.5 C 34.367188 14.5 37.644531 18.882813 38.402344 20 C 37.648438 21.117188 34.386719 25.5 29.570313 25.5 L 17.785156 25.5 L 12.621094 33.351563 C 11.710938 34.695313 10.175781 35.5 8.523438 35.5 Z "></path>
<path style=" fill:#4788C7;" d="M 8.523438 5 C 10.011719 5 11.390625 5.722656 12.203125 6.925781 L 17.21875 14.550781 L 17.515625 15 L 29.570313 15 C 33.785156 15 36.808594 18.636719 37.796875 20.003906 C 36.816406 21.375 33.828125 25 29.570313 25 L 17.515625 25 L 17.21875 25.449219 L 12.214844 33.0625 C 11.390625 34.277344 10.011719 35 8.523438 35 L 6 35 L 6 25 L 5 25 L 5 15 L 6 15 L 6 5 L 8.523438 5 M 8.523438 4 L 5 4 L 5 14 L 4 14 L 4 26 L 5 26 L 5 36 L 8.523438 36 C 10.339844 36 12.03125 35.109375 13.039063 33.625 L 18.054688 26 L 29.570313 26 C 35.421875 26 39 20 39 20 C 39 20 35.386719 14 29.570313 14 L 18.054688 14 L 13.039063 6.375 C 12.03125 4.890625 10.339844 4 8.523438 4 Z "></path>
<path style=" fill:#DFF0FE;" d="M 30.5 17.640625 L 31.9375 18 C 32.855469 18.230469 33.5 19.050781 33.5 20 C 33.5 20.949219 32.855469 21.769531 31.9375 22 L 30.5 22.359375 Z "></path>
<path style=" fill:#4788C7;" d="M 31 18.28125 L 31.816406 18.484375 C 32.515625 18.660156 33 19.28125 33 20 C 33 20.71875 32.515625 21.339844 31.816406 21.515625 L 31 21.71875 L 31 18.28125 M 30 17 L 30 23 L 32.058594 22.484375 C 33.199219 22.199219 34 21.175781 34 20 C 34 18.824219 33.199219 17.800781 32.058594 17.515625 Z "></path>
<path style=" fill:#4788C7;" d="M 5 15 L 11.5 15 C 11.773438 15 12 14.773438 12 14.5 C 12 14.226563 11.773438 14 11.5 14 L 5 14 C 4.726563 14 4.5 14.226563 4.5 14.5 C 4.5 14.773438 4.726563 15 5 15 Z "></path>
<path style=" fill:#4788C7;" d="M 5 26 L 11.5 26 C 11.773438 26 12 25.773438 12 25.5 C 12 25.226563 11.773438 25 11.5 25 L 5 25 C 4.726563 25 4.5 25.226563 4.5 25.5 C 4.5 25.773438 4.726563 26 5 26 Z "></path>
</g>
</svg>