<svg xmlns="http://www.w3.org/2000/svg" xmlns:xlink="http://www.w3.org/1999/xlink" viewBox="0 0 40 40" version="1.1">
<g id="surface1">
<path style=" fill:#DFF0FE;" d="M 25.5 17.5 L 25.5 12.890625 L 22.570313 6.542969 L 25.269531 2.5 L 30.730469 2.5 L 33.429688 6.542969 L 30.5 12.890625 L 30.5 17.5 Z "></path>
<path style=" fill:#4788C7;" d="M 30.464844 3 L 32.859375 6.589844 L 30.09375 12.582031 L 30 12.78125 L 30 17 L 26 17 L 26 12.78125 L 25.90625 12.582031 L 23.144531 6.589844 L 25.535156 3 L 30.464844 3 M 31 2 L 25 2 L 22 6.5 L 25 13 L 25 18 L 31 18 L 31 13 L 34 6.5 Z "></path>
<path style=" fill:#DFF0FE;" d="M 18.5 12.5 L 21.5 12.5 L 21.5 18.5 L 18.5 18.5 Z "></path>
<path style=" fill:#4788C7;" d="M 21 13 L 21 18 L 19 18 L 19 13 L 21 13 M 22 12 L 18 12 L 18 19 L 22 19 Z "></path>
<path style=" fill:#4788C7;" d="M 39 24.5 C 39 25.878906 37.878906 27 36.5 27 C 35.121094 27 34 25.878906 34 24.5 C 34 23.121094 35.121094 22 36.5 22 C 37.878906 22 39 23.121094 39 24.5 Z "></path>
<path style=" fill:#B6DCFE;" d="M 1.5 2.5 L 15.5 2.5 L 15.5 19.5 L 1.5 19.5 Z "></path>
<path style=" fill:#4788C7;" d="M 15 3 L 15 19 L 2 19 L 2 3 L 15 3 M 16 2 L 1 2 L 1 20 L 16 20 Z "></path>
<path style=" fill:#B6DCFE;" d="M 1.5 32.5 L 1.5 17.5 L 29 17.5 C 33.136719 17.5 36.5 20.863281 36.5 25 C 36.5 29.136719 33.136719 32.5 29 32.5 Z "></path>
<path style=" fill:#4788C7;" d="M 29 18 C 32.859375 18 36 21.140625 36 25 C 36 28.859375 32.859375 32 29 32 L 2 32 L 2 18 L 29 18 M 29 17 L 1 17 L 1 33 L 29 33 C 33.417969 33 37 29.417969 37 25 C 37 20.582031 33.417969 17 29 17 Z "></path>
<path style=" fill:#98CCFD;" d="M 32.5 37.5 L 32.5 29.5 L 35.675781 29.5 L 39.230469 37.5 Z "></path>
<path style=" fill:#4788C7;" d="M 35.351563 30 L 38.460938 37 L 33 37 L 33 30 L 35.351563 30 M 36 29 L 32 29 L 32 38 L 40 38 Z "></path>
<path style=" fill:#98CCFD;" d="M 15.5 32 C 15.5 35.039063 13.039063 37.5 10 37.5 C 6.960938 37.5 4.5 35.039063 4.5 32 C 4.5 28.960938 6.960938 26.5 10 26.5 C 13.039063 26.5 15.5 28.960938 15.5 32 Z "></path>
<path style=" fill:#4788C7;" d="M 10 27 C 12.757813 27 15 29.242188 15 32 C 15 34.757813 12.757813 37 10 37 C 7.242188 37 5 34.757813 5 32 C 5 29.242188 7.242188 27 10 27 M 10 26 C 6.6875 26 4 28.6875 4 32 C 4 35.3125 6.6875 38 10 38 C 13.3125 38 16 35.3125 16 32 C 16 28.6875 13.3125 26 10 26 Z "></path>
<path style=" fill:#98CCFD;" d="M 29.5 32 C 29.5 35.039063 27.039063 37.5 24 37.5 C 20.960938 37.5 18.5 35.039063 18.5 32 C 18.5 28.960938 20.960938 26.5 24 26.5 C 27.039063 26.5 29.5 28.960938 29.5 32 Z "></path>
<path style=" fill:#4788C7;" d="M 24 27 C 26.757813 27 29 29.242188 29 32 C 29 34.757813 26.757813 37 24 37 C 21.242188 37 19 34.757813 19 32 C 19 29.242188 21.242188 27 24 27 M 24 26 C 20.6875 26 18 28.6875 18 32 C 18 35.3125 20.6875 38 24 38 C 27.3125 38 30 35.3125 30 32 C 30 28.6875 27.3125 26 24 26 Z "></path>
<path style=" fill:#4788C7;" d="M 26 32 C 26 33.105469 25.105469 34 24 34 C 22.894531 34 22 33.105469 22 32 C 22 30.894531 22.894531 30 24 30 C 25.105469 30 26 30.894531 26 32 Z "></path>
<path style=" fill:#4788C7;" d="M 12 32 C 12 33.105469 11.105469 34 10 34 C 8.894531 34 8 33.105469 8 32 C 8 30.894531 8.894531 30 10 30 C 11.105469 30 12 30.894531 12 32 Z "></path>
<path style="fill:none;stroke-width:1;stroke-linecap:butt;stroke-linejoin:miter;stroke:#4788C7;stroke-opacity:1;stroke-miterlimit:10;" d="M 10.414063 32.5 L 22.519531 32.5 "></path>
<path style="fill:none;stroke-width:1;stroke-linecap:butt;stroke-linejoin:miter;stroke:#4788C7;stroke-opacity:1;stroke-miterlimit:10;" d="M 6.378906 2.5 L 18 2.5 "></path>
<path style="fill:none;stroke-width:1;stroke-linecap:butt;stroke-linejoin:miter;stroke:#4788C7;stroke-opacity:1;stroke-miterlimit:10;" d="M 22.417969 6.5 L 33.375 6.5 "></path>
<path style="fill:none;stroke-width:1;stroke-linecap:butt;stroke-linejoin:miter;stroke:#4788C7;stroke-opacity:1;stroke-miterlimit:10;" d="M 25.207031 12.5 L 30.585938 12.5 "></path>
<path style=" fill:#DFF0FE;" d="M 8 12.5 C 6.621094 12.5 5.5 11.378906 5.5 10 L 5.5 2.5 L 15.5 2.5 L 15.5 12.5 Z "></path>
<path style=" fill:#4788C7;" d="M 15 3 L 15 12 L 8 12 C 6.898438 12 6 11.101563 6 10 L 6 3 L 15 3 M 16 2 L 5 2 L 5 10 C 5 11.65625 6.34375 13 8 13 L 16 13 Z "></path>
<path style=" fill:#4788C7;" d="M 35.5 38 C 35.226563 38 35 37.773438 35 37.5 L 35 35.5 C 35 35.226563 35.226563 35 35.5 35 C 35.773438 35 36 35.226563 36 35.5 L 36 37.5 C 36 37.773438 35.773438 38 35.5 38 Z "></path>
</g>
</svg>