<svg xmlns="http://www.w3.org/2000/svg" xmlns:xlink="http://www.w3.org/1999/xlink" viewBox="0 0 40 40" version="1.1">
<g id="surface1">
<path style=" fill:#98CCFD;" d="M 3 28.5 C 1.621094 28.5 0.5 27.378906 0.5 26 L 0.5 17.273438 L 3.730469 9.988281 C 4.128906 9.085938 5.027344 8.5 6.015625 8.5 L 24.011719 8.5 C 25.101563 8.5 26.144531 9.019531 26.800781 9.886719 L 31.660156 16.292969 L 37.621094 17.335938 C 38.699219 17.488281 39.5 18.410156 39.5 19.480469 L 39.5 25 C 39.5 26.929688 37.929688 28.5 36 28.5 Z "></path>
<path style=" fill:#4788C7;" d="M 24.011719 9 C 24.945313 9 25.839844 9.445313 26.402344 10.1875 L 31.144531 16.4375 L 31.378906 16.75 L 31.765625 16.816406 L 37.566406 17.832031 C 38.382813 17.945313 39 18.65625 39 19.480469 L 39 25 C 39 26.652344 37.652344 28 36 28 L 3 28 C 1.898438 28 1 27.101563 1 26 L 1 17.378906 L 4.1875 10.1875 C 4.507813 9.46875 5.222656 9 6.015625 9 L 24.011719 9 M 24.011719 8 L 6.015625 8 C 4.828125 8 3.753906 8.699219 3.273438 9.785156 L 0 17.167969 L 0 26 C 0 27.65625 1.34375 29 3 29 L 36 29 C 38.210938 29 40 27.210938 40 25 L 40 19.480469 C 40 18.152344 39.023438 17.027344 37.707031 16.84375 L 31.9375 15.835938 L 27.199219 9.582031 C 26.445313 8.585938 25.265625 8 24.011719 8 Z "></path>
<path style=" fill:#FFFFFF;" d="M 4 19.832031 C 4 19.097656 3.550781 18.5 3 18.5 L 1 18.5 L 1 22.5 L 3 22.5 C 3.550781 22.5 4 21.902344 4 21.167969 C 4 20.917969 4 20.082031 4 19.832031 Z "></path>
<path style=" fill:#FFFFFF;" d="M 36 20.5 L 36 21.5 C 36 22.328125 36.671875 23 37.5 23 L 39 23 C 39 23 39 20.328125 39 19.523438 C 39 19.175781 38.929688 19 38.929688 19 L 37.5 19 C 36.671875 19 36 19.671875 36 20.5 Z "></path>
<path style=" fill:#DFF0FE;" d="M 7.605469 16.5 C 7.148438 16.5 6.722656 16.296875 6.4375 15.945313 C 6.152344 15.589844 6.042969 15.132813 6.136719 14.6875 L 7.449219 8.5 L 24.011719 8.5 C 25.101563 8.5 26.144531 9.019531 26.800781 9.886719 L 31.660156 16.292969 L 32.851563 16.5 Z "></path>
<path style=" fill:#4788C7;" d="M 24.011719 9 C 24.945313 9 25.839844 9.445313 26.402344 10.1875 L 30.8125 16 L 7.605469 16 C 7.300781 16 7.019531 15.863281 6.828125 15.628906 C 6.636719 15.394531 6.5625 15.089844 6.625 14.792969 L 7.855469 9 L 24.011719 9 M 24.011719 8 L 7.046875 8 L 5.648438 14.585938 C 5.382813 15.828125 6.332031 17 7.605469 17 L 38.289063 17 C 38.105469 16.929688 37.910156 16.871094 37.707031 16.839844 L 31.9375 15.832031 L 27.199219 9.582031 C 26.445313 8.585938 25.265625 8 24.011719 8 Z "></path>
<path style="fill:none;stroke-width:1;stroke-linecap:butt;stroke-linejoin:miter;stroke:#4788C7;stroke-opacity:1;stroke-miterlimit:10;" d="M 20.5 16.5 L 20.5 8.5 "></path>
<path style="fill:none;stroke-width:1;stroke-linecap:butt;stroke-linejoin:miter;stroke:#4788C7;stroke-opacity:1;stroke-miterlimit:10;" d="M 13.5 16.5 L 13.5 8.5 "></path>
<path style=" fill:#DFF0FE;" d="M 35.5 28 C 35.5 30.484375 33.484375 32.5 31 32.5 C 28.515625 32.5 26.5 30.484375 26.5 28 C 26.5 25.515625 28.515625 23.5 31 23.5 C 33.484375 23.5 35.5 25.515625 35.5 28 Z "></path>
<path style=" fill:#4788C7;" d="M 31 24 C 33.207031 24 35 25.792969 35 28 C 35 30.207031 33.207031 32 31 32 C 28.792969 32 27 30.207031 27 28 C 27 25.792969 28.792969 24 31 24 M 31 23 C 28.238281 23 26 25.238281 26 28 C 26 30.761719 28.238281 33 31 33 C 33.761719 33 36 30.761719 36 28 C 36 25.238281 33.761719 23 31 23 Z "></path>
<path style=" fill:#4788C7;" d="M 32 28 C 32 28.550781 31.550781 29 31 29 C 30.449219 29 30 28.550781 30 28 C 30 27.449219 30.449219 27 31 27 C 31.550781 27 32 27.449219 32 28 Z "></path>
<path style=" fill:#DFF0FE;" d="M 13.5 28 C 13.5 30.484375 11.484375 32.5 9 32.5 C 6.515625 32.5 4.5 30.484375 4.5 28 C 4.5 25.515625 6.515625 23.5 9 23.5 C 11.484375 23.5 13.5 25.515625 13.5 28 Z "></path>
<path style=" fill:#4788C7;" d="M 9 24 C 11.207031 24 13 25.792969 13 28 C 13 30.207031 11.207031 32 9 32 C 6.792969 32 5 30.207031 5 28 C 5 25.792969 6.792969 24 9 24 M 9 23 C 6.238281 23 4 25.238281 4 28 C 4 30.761719 6.238281 33 9 33 C 11.761719 33 14 30.761719 14 28 C 14 25.238281 11.761719 23 9 23 Z "></path>
<path style=" fill:#4788C7;" d="M 10 28 C 10 28.550781 9.550781 29 9 29 C 8.449219 29 8 28.550781 8 28 C 8 27.449219 8.449219 27 9 27 C 9.550781 27 10 27.449219 10 28 Z "></path>
</g>
</svg>