<svg xmlns="http://www.w3.org/2000/svg" xmlns:xlink="http://www.w3.org/1999/xlink" viewBox="0 0 40 40" version="1.1">
<g id="surface1">
<path style=" fill:#98CCFD;" d="M 4 33.5 C 2.621094 33.5 1.5 32.378906 1.5 31 L 1.5 7 C 1.5 5.070313 3.070313 3.5 5 3.5 L 31.722656 3.5 C 33.382813 3.5 34.828125 4.683594 35.152344 6.3125 L 38.511719 23.097656 L 38.5 31 C 38.5 32.378906 37.378906 33.5 36 33.5 Z "></path>
<path style=" fill:#4788C7;" d="M 31.722656 4 C 33.144531 4 34.382813 5.015625 34.664063 6.410156 L 38 23.097656 L 38 31 C 38 32.101563 37.101563 33 36 33 L 4 33 C 2.898438 33 2 32.101563 2 31 L 2 7 C 2 5.347656 3.347656 4 5 4 L 31.722656 4 M 31.722656 3 L 5 3 C 2.789063 3 1 4.789063 1 7 L 1 31 C 1 32.65625 2.34375 34 4 34 L 36 34 C 37.65625 34 39 32.65625 39 31 L 39 23 L 35.644531 6.214844 C 35.269531 4.347656 33.628906 3 31.722656 3 Z "></path>
<path style=" fill:#DFF0FE;" d="M 33.5 33.5 C 33.5 35.710938 31.710938 37.5 29.5 37.5 C 27.289063 37.5 25.5 35.710938 25.5 33.5 C 25.5 31.289063 27.289063 29.5 29.5 29.5 C 31.710938 29.5 33.5 31.289063 33.5 33.5 Z "></path>
<path style=" fill:#4788C7;" d="M 29.5 30 C 31.429688 30 33 31.570313 33 33.5 C 33 35.429688 31.429688 37 29.5 37 C 27.570313 37 26 35.429688 26 33.5 C 26 31.570313 27.570313 30 29.5 30 M 29.5 29 C 27.015625 29 25 31.015625 25 33.5 C 25 35.984375 27.015625 38 29.5 38 C 31.984375 38 34 35.984375 34 33.5 C 34 31.015625 31.984375 29 29.5 29 Z "></path>
<path style=" fill:#4788C7;" d="M 31 33.5 C 31 34.328125 30.328125 35 29.5 35 C 28.671875 35 28 34.328125 28 33.5 C 28 32.671875 28.671875 32 29.5 32 C 30.328125 32 31 32.671875 31 33.5 Z "></path>
<path style=" fill:#DFF0FE;" d="M 13.5 33.5 C 13.5 35.710938 11.710938 37.5 9.5 37.5 C 7.289063 37.5 5.5 35.710938 5.5 33.5 C 5.5 31.289063 7.289063 29.5 9.5 29.5 C 11.710938 29.5 13.5 31.289063 13.5 33.5 Z "></path>
<path style=" fill:#4788C7;" d="M 9.5 30 C 11.429688 30 13 31.570313 13 33.5 C 13 35.429688 11.429688 37 9.5 37 C 7.570313 37 6 35.429688 6 33.5 C 6 31.570313 7.570313 30 9.5 30 M 9.5 29 C 7.015625 29 5 31.015625 5 33.5 C 5 35.984375 7.015625 38 9.5 38 C 11.984375 38 14 35.984375 14 33.5 C 14 31.015625 11.984375 29 9.5 29 Z "></path>
<path style=" fill:#4788C7;" d="M 11 33.5 C 11 34.328125 10.328125 35 9.5 35 C 8.671875 35 8 34.328125 8 33.5 C 8 32.671875 8.671875 32 9.5 32 C 10.328125 32 11 32.671875 11 33.5 Z "></path>
<path style=" fill:#FFFFFF;" d="M 2.5 28 L 2 28 L 2 25 L 2.5 25 C 3.328125 25 4 25.671875 4 26.5 C 4 27.328125 3.328125 28 2.5 28 Z "></path>
<path style=" fill:#FFFFFF;" d="M 37.5 25 L 38 25 L 38 28 L 37.5 28 C 36.671875 28 36 27.328125 36 26.5 C 36 25.671875 36.671875 25 37.5 25 Z "></path>
<path style=" fill:#DFF0FE;" d="M 1.5 22.5 L 1.5 14.5 L 36.789063 14.5 L 38.390625 22.5 Z "></path>
<path style=" fill:#4788C7;" d="M 36.378906 15 L 37.78125 22 L 2 22 L 2 15 L 36.378906 15 M 37.199219 14 L 1 14 L 1 23 L 39 23 Z "></path>
<path style=" fill:#DFF0FE;" d="M 1.5 11.5 L 1.5 7 C 1.5 5.070313 3.070313 3.5 5 3.5 L 31.691406 3.5 C 33.367188 3.5 34.8125 4.695313 35.128906 6.34375 L 36.109375 11.5 Z "></path>
<path style=" fill:#4788C7;" d="M 31.691406 4 C 33.128906 4 34.367188 5.027344 34.636719 6.4375 L 35.507813 11 L 2 11 L 2 7 C 2 5.347656 3.347656 4 5 4 L 31.691406 4 M 31.691406 3 L 5 3 C 2.789063 3 1 4.789063 1 7 L 1 12 L 36.714844 12 L 35.617188 6.253906 C 35.261719 4.363281 33.609375 3 31.691406 3 Z "></path>
<path style="fill:none;stroke-width:1;stroke-linecap:butt;stroke-linejoin:miter;stroke:#4788C7;stroke-opacity:1;stroke-miterlimit:10;" d="M 9.5 11.179688 L 9.5 3.035156 "></path>
<path style="fill:none;stroke-width:1;stroke-linecap:butt;stroke-linejoin:miter;stroke:#4788C7;stroke-opacity:1;stroke-miterlimit:10;" d="M 18.5 11.179688 L 18.5 3.035156 "></path>
<path style="fill:none;stroke-width:1;stroke-linecap:butt;stroke-linejoin:miter;stroke:#4788C7;stroke-opacity:1;stroke-miterlimit:10;" d="M 27.5 11.179688 L 27.5 3.035156 "></path>
<path style="fill:none;stroke-width:1;stroke-linecap:butt;stroke-linejoin:miter;stroke:#4788C7;stroke-opacity:1;stroke-miterlimit:10;" d="M 9.5 22.285156 L 9.5 14.714844 "></path>
<path style="fill:none;stroke-width:1;stroke-linecap:butt;stroke-linejoin:miter;stroke:#4788C7;stroke-opacity:1;stroke-miterlimit:10;" d="M 18.5 22.285156 L 18.5 14.714844 "></path>
<path style="fill:none;stroke-width:1;stroke-linecap:butt;stroke-linejoin:miter;stroke:#4788C7;stroke-opacity:1;stroke-miterlimit:10;" d="M 27.5 22.285156 L 27.5 14.714844 "></path>
</g>
</svg>