<svg xmlns="http://www.w3.org/2000/svg" xmlns:xlink="http://www.w3.org/1999/xlink" viewBox="0 0 40 40" version="1.1">
<g id="surface1">
<path style=" fill:#DFF0FE;" d="M 11.285156 22.5 L 1.5 5.863281 L 1.5 3.5 L 3.761719 3.5 L 18.960938 22.5 Z "></path>
<path style=" fill:#4788C7;" d="M 3.519531 4 L 17.917969 22 L 11.570313 22 L 2 5.726563 L 2 4 L 3.519531 4 M 4 3 L 1 3 L 1 6 L 11 23 L 20 23 Z "></path>
<path style=" fill:#DFF0FE;" d="M 9.5 21.5 L 19.5 21.5 L 19.5 25.5 L 9.5 25.5 Z "></path>
<path style=" fill:#4788C7;" d="M 19 22 L 19 25 L 10 25 L 10 22 L 19 22 M 20 21 L 9 21 L 9 26 L 20 26 Z "></path>
<path style=" fill:#98CCFD;" d="M 3 32.5 C 1.621094 32.5 0.5 31.378906 0.5 30 L 0.5 24.5 L 22.5 24.5 L 22.5 12 C 22.5 10.621094 23.621094 9.5 25 9.5 L 34.699219 9.5 C 35.292969 9.5 35.828125 9.851563 36.070313 10.390625 L 39.027344 17.039063 C 39.339844 17.746094 39.5 18.5 39.5 19.273438 L 39.5 30 C 39.5 31.378906 38.378906 32.5 37 32.5 Z "></path>
<path style=" fill:#4788C7;" d="M 34.699219 10 C 35.09375 10 35.453125 10.234375 35.613281 10.59375 L 38.570313 17.242188 C 38.855469 17.886719 39 18.570313 39 19.273438 L 39 30 C 39 31.101563 38.101563 32 37 32 L 3 32 C 1.898438 32 1 31.101563 1 30 L 1 25 L 23 25 L 23 12 C 23 10.898438 23.898438 10 25 10 L 34.699219 10 M 34.699219 9 L 25 9 C 23.34375 9 22 10.34375 22 12 L 22 24 L 0 24 L 0 30 C 0 31.65625 1.34375 33 3 33 L 37 33 C 38.65625 33 40 31.65625 40 30 L 40 19.273438 C 40 18.433594 39.824219 17.601563 39.484375 16.835938 L 36.527344 10.1875 C 36.207031 9.464844 35.492188 9 34.699219 9 Z "></path>
<path style=" fill:#DFF0FE;" d="M 29.5 21.5 C 28.949219 21.5 28.5 21.050781 28.5 20.5 L 28.5 13.5 C 28.5 12.949219 28.949219 12.5 29.5 12.5 L 37.007813 12.5 L 39.027344 17.039063 C 39.339844 17.746094 39.5 18.5 39.5 19.273438 L 39.5 21.5 Z "></path>
<path style=" fill:#4788C7;" d="M 36.683594 13 L 38.570313 17.242188 C 38.855469 17.886719 39 18.570313 39 19.273438 L 39 21 L 29.5 21 C 29.222656 21 29 20.777344 29 20.5 L 29 13.5 C 29 13.222656 29.222656 13 29.5 13 L 36.683594 13 M 37.332031 12 L 29.5 12 C 28.671875 12 28 12.671875 28 13.5 L 28 20.5 C 28 21.328125 28.671875 22 29.5 22 L 40 22 L 40 19.273438 C 40 18.433594 39.824219 17.601563 39.484375 16.835938 Z "></path>
<path style="fill:none;stroke-width:1;stroke-linecap:butt;stroke-linejoin:miter;stroke:#4788C7;stroke-opacity:1;stroke-miterlimit:10;" d="M 1.5 4 L 1.5 15.5 "></path>
<path style=" fill:#FFFFFF;" d="M 38.5 24 L 39 24 L 39 27 L 38.5 27 C 37.671875 27 37 26.328125 37 25.5 C 37 24.671875 37.671875 24 38.5 24 Z "></path>
<path style=" fill:#FFFFFF;" d="M 1.5 29 L 1 29 L 1 26 L 1.5 26 C 2.328125 26 3 26.671875 3 27.5 C 3 28.328125 2.328125 29 1.5 29 Z "></path>
<path style=" fill:#DFF0FE;" d="M 35.5 32.5 C 35.5 34.710938 33.710938 36.5 31.5 36.5 C 29.289063 36.5 27.5 34.710938 27.5 32.5 C 27.5 30.289063 29.289063 28.5 31.5 28.5 C 33.710938 28.5 35.5 30.289063 35.5 32.5 Z "></path>
<path style=" fill:#4788C7;" d="M 31.5 29 C 33.429688 29 35 30.570313 35 32.5 C 35 34.429688 33.429688 36 31.5 36 C 29.570313 36 28 34.429688 28 32.5 C 28 30.570313 29.570313 29 31.5 29 M 31.5 28 C 29.015625 28 27 30.015625 27 32.5 C 27 34.984375 29.015625 37 31.5 37 C 33.984375 37 36 34.984375 36 32.5 C 36 30.015625 33.984375 28 31.5 28 Z "></path>
<path style=" fill:#4788C7;" d="M 33 32.5 C 33 33.328125 32.328125 34 31.5 34 C 30.671875 34 30 33.328125 30 32.5 C 30 31.671875 30.671875 31 31.5 31 C 32.328125 31 33 31.671875 33 32.5 Z "></path>
<path style=" fill:#DFF0FE;" d="M 14.5 32.5 C 14.5 34.710938 12.710938 36.5 10.5 36.5 C 8.289063 36.5 6.5 34.710938 6.5 32.5 C 6.5 30.289063 8.289063 28.5 10.5 28.5 C 12.710938 28.5 14.5 30.289063 14.5 32.5 Z "></path>
<path style=" fill:#4788C7;" d="M 10.5 29 C 12.429688 29 14 30.570313 14 32.5 C 14 34.429688 12.429688 36 10.5 36 C 8.570313 36 7 34.429688 7 32.5 C 7 30.570313 8.570313 29 10.5 29 M 10.5 28 C 8.015625 28 6 30.015625 6 32.5 C 6 34.984375 8.015625 37 10.5 37 C 12.984375 37 15 34.984375 15 32.5 C 15 30.015625 12.984375 28 10.5 28 Z "></path>
<path style=" fill:#4788C7;" d="M 12 32.5 C 12 33.328125 11.328125 34 10.5 34 C 9.671875 34 9 33.328125 9 32.5 C 9 31.671875 9.671875 31 10.5 31 C 11.328125 31 12 31.671875 12 32.5 Z "></path>
<path style="fill:none;stroke-width:1;stroke-linecap:round;stroke-linejoin:miter;stroke:#4788C7;stroke-opacity:1;stroke-miterlimit:10;" d="M 1.5 15.5 L 2.5 15.5 C 3.605469 15.5 4.5 16.394531 4.5 17.5 L 4.5 18.5 C 4.5 19.605469 3.605469 20.5 2.5 20.5 C 1.394531 20.5 0.5 19.605469 0.5 18.5 "></path>
</g>
</svg>