<svg xmlns="http://www.w3.org/2000/svg" xmlns:xlink="http://www.w3.org/1999/xlink" viewBox="0 0 40 40" version="1.1">
<g id="surface1">
<path style=" fill:#98CCFD;" d="M 3 19.5 C 2.171875 19.5 1.5 18.828125 1.5 18 L 1.5 16 C 1.5 15.171875 2.171875 14.5 3 14.5 L 37 14.5 C 37.828125 14.5 38.5 15.171875 38.5 16 L 38.5 18 C 38.5 18.828125 37.828125 19.5 37 19.5 Z "></path>
<path style=" fill:#4788C7;" d="M 37 15 C 37.550781 15 38 15.449219 38 16 L 38 18 C 38 18.550781 37.550781 19 37 19 L 3 19 C 2.449219 19 2 18.550781 2 18 L 2 16 C 2 15.449219 2.449219 15 3 15 L 37 15 M 37 14 L 3 14 C 1.894531 14 1 14.894531 1 16 L 1 18 C 1 19.105469 1.894531 20 3 20 L 37 20 C 38.105469 20 39 19.105469 39 18 L 39 16 C 39 14.894531 38.105469 14 37 14 Z "></path>
<path style=" fill:#B6DCFE;" d="M 30 38.5 C 29.726563 38.5 29.5 38.277344 29.5 38 L 29.5 35 C 29.5 34.722656 29.726563 34.5 30 34.5 L 35 34.5 C 35.273438 34.5 35.5 34.722656 35.5 35 L 35.5 38 C 35.5 38.277344 35.273438 38.5 35 38.5 Z "></path>
<path style=" fill:#4788C7;" d="M 35 35 L 35 38 L 30 38 L 30 35 L 35 35 M 35 34 L 30 34 C 29.449219 34 29 34.449219 29 35 L 29 38 C 29 38.550781 29.449219 39 30 39 L 35 39 C 35.550781 39 36 38.550781 36 38 L 36 35 C 36 34.449219 35.550781 34 35 34 Z "></path>
<path style=" fill:#B6DCFE;" d="M 5 38.5 C 4.726563 38.5 4.5 38.277344 4.5 38 L 4.5 35 C 4.5 34.722656 4.726563 34.5 5 34.5 L 10 34.5 C 10.273438 34.5 10.5 34.722656 10.5 35 L 10.5 38 C 10.5 38.277344 10.273438 38.5 10 38.5 Z "></path>
<path style=" fill:#4788C7;" d="M 10 35 L 10 38 L 5 38 L 5 35 L 10 35 M 10 34 L 5 34 C 4.449219 34 4 34.449219 4 35 L 4 38 C 4 38.550781 4.449219 39 5 39 L 10 39 C 10.550781 39 11 38.550781 11 38 L 11 35 C 11 34.449219 10.550781 34 10 34 Z "></path>
<path style=" fill:#98CCFD;" d="M 4.5 35.5 L 4.5 21 L 6.296875 5.769531 C 6.621094 3.339844 8.722656 1.5 11.183594 1.5 L 28.820313 1.5 C 31.277344 1.5 33.378906 3.339844 33.703125 5.777344 L 35.503906 21.058594 L 35.5 35.5 Z "></path>
<path style=" fill:#4788C7;" d="M 28.820313 2 C 31.027344 2 32.917969 3.652344 33.207031 5.828125 L 35 21.058594 L 35 35 L 5 35 L 5 21.058594 L 6.792969 5.84375 C 7.085938 3.652344 8.972656 2 11.179688 2 L 28.820313 2 M 28.820313 1 L 11.179688 1 C 8.460938 1 6.160156 3.015625 5.800781 5.710938 L 4 21 L 4 36 L 36 36 L 36 21 L 34.199219 5.710938 C 33.839844 3.015625 31.539063 1 28.820313 1 Z "></path>
<path style=" fill:#DFF0FE;" d="M 4.5625 20.5 L 6.070313 7.5 L 33.90625 7.5 L 35.4375 20.5 Z "></path>
<path style=" fill:#4788C7;" d="M 33.460938 8 L 34.875 20 L 5.121094 20 L 6.515625 8 L 33.460938 8 M 34.347656 7 L 5.625 7 L 4 21 L 36 21 Z "></path>
<path style=" fill:#FFFFFF;" d="M 33 26 C 33 27.105469 32.105469 28 31 28 C 29.894531 28 29 27.105469 29 26 C 29 24.894531 29.894531 24 31 24 C 32.105469 24 33 24.894531 33 26 Z "></path>
<path style=" fill:#FFFFFF;" d="M 11 26 C 11 27.105469 10.105469 28 9 28 C 7.894531 28 7 27.105469 7 26 C 7 24.894531 7.894531 24 9 24 C 10.105469 24 11 24.894531 11 26 Z "></path>
<path style=" fill:#DFF0FE;" d="M 12.582031 35.5 L 13.804688 27.421875 C 13.953125 26.324219 14.898438 25.5 16 25.5 L 24 25.5 C 25.101563 25.5 26.046875 26.324219 26.195313 27.414063 L 27.417969 35.5 Z "></path>
<path style=" fill:#4788C7;" d="M 24 26 C 24.851563 26 25.582031 26.636719 25.699219 27.496094 L 26.835938 35 L 13.164063 35 L 14.300781 27.484375 C 14.417969 26.636719 15.148438 26 16 26 L 24 26 M 24 25 L 16 25 C 14.644531 25 13.492188 26.003906 13.3125 27.347656 L 12 36 L 28 36 L 26.6875 27.347656 C 26.507813 26.003906 25.355469 25 24 25 Z "></path>
</g>
</svg>