<svg xmlns="http://www.w3.org/2000/svg" xmlns:xlink="http://www.w3.org/1999/xlink" viewBox="0 0 40 40" version="1.1">
<g id="surface1">
<path style=" fill:#4788C7;" d="M 24.785156 6 L 23.265625 6 C 22.988281 6 22.765625 5.777344 22.765625 5.5 C 22.765625 5.222656 22.988281 5 23.265625 5 L 24.300781 5 L 28.109375 0.1875 C 28.28125 -0.0273438 28.59375 -0.0625 28.8125 0.105469 C 29.027344 0.277344 29.0625 0.59375 28.890625 0.808594 Z "></path>
<path style=" fill:#4788C7;" d="M 15.214844 6 L 16.734375 6 C 17.011719 6 17.234375 5.777344 17.234375 5.5 C 17.234375 5.222656 17.011719 5 16.734375 5 L 15.699219 5 L 11.890625 0.1875 C 11.71875 -0.0273438 11.40625 -0.0625 11.1875 0.105469 C 10.972656 0.277344 10.9375 0.59375 11.109375 0.808594 Z "></path>
<path style=" fill:#B6DCFE;" d="M 5 38.5 C 4.726563 38.5 4.5 38.277344 4.5 38 L 4.5 35 C 4.5 34.722656 4.726563 34.5 5 34.5 L 11 34.5 C 11.273438 34.5 11.5 34.722656 11.5 35 L 11.5 38 C 11.5 38.277344 11.273438 38.5 11 38.5 Z "></path>
<path style=" fill:#4788C7;" d="M 11 35 L 11 38 L 5 38 L 5 35 L 11 35 M 11 34 L 5 34 C 4.449219 34 4 34.449219 4 35 L 4 38 C 4 38.550781 4.449219 39 5 39 L 11 39 C 11.550781 39 12 38.550781 12 38 L 12 35 C 12 34.449219 11.550781 34 11 34 Z "></path>
<path style=" fill:#B6DCFE;" d="M 29 38.5 C 28.726563 38.5 28.5 38.277344 28.5 38 L 28.5 35 C 28.5 34.722656 28.726563 34.5 29 34.5 L 35 34.5 C 35.273438 34.5 35.5 34.722656 35.5 35 L 35.5 38 C 35.5 38.277344 35.273438 38.5 35 38.5 Z "></path>
<path style=" fill:#4788C7;" d="M 35 35 L 35 38 L 29 38 L 29 35 L 35 35 M 35 34 L 29 34 C 28.449219 34 28 34.449219 28 35 L 28 38 C 28 38.550781 28.449219 39 29 39 L 35 39 C 35.550781 39 36 38.550781 36 38 L 36 35 C 36 34.449219 35.550781 34 35 34 Z "></path>
<path style=" fill:#98CCFD;" d="M 4.5 35.5 L 4.5 8 C 4.5 6.070313 6.070313 4.5 8 4.5 L 12.535156 4.5 L 12.652344 4.167969 C 13.007813 3.171875 13.949219 2.5 15 2.5 L 25 2.5 C 26.050781 2.5 26.992188 3.171875 27.347656 4.167969 L 27.464844 4.5 L 32 4.5 C 33.929688 4.5 35.5 6.070313 35.5 8 L 35.5 35.5 Z "></path>
<path style=" fill:#4788C7;" d="M 25 3 C 25.835938 3 26.589844 3.535156 26.875 4.335938 L 27.109375 5 L 32 5 C 33.652344 5 35 6.347656 35 8 L 35 35 L 5 35 L 5 8 C 5 6.347656 6.347656 5 8 5 L 12.890625 5 L 13.125 4.335938 C 13.410156 3.535156 14.164063 3 15 3 L 25 3 M 25 2 L 15 2 C 13.695313 2 12.597656 2.835938 12.183594 4 L 8 4 C 5.789063 4 4 5.789063 4 8 L 4 36 L 36 36 L 36 8 C 36 5.789063 34.210938 4 32 4 L 27.816406 4 C 27.402344 2.835938 26.304688 2 25 2 Z "></path>
<path style=" fill:#DFF0FE;" d="M 4.5 8.5 L 35.5 8.5 L 35.5 23.5 L 4.5 23.5 Z "></path>
<path style=" fill:#4788C7;" d="M 35 9 L 35 23 L 5 23 L 5 9 L 35 9 M 36 8 L 4 8 L 4 24 L 36 24 Z "></path>
<path style=" fill:#FFFFFF;" d="M 28 29 L 33 29 L 33 32 L 28 32 Z "></path>
<path style=" fill:#FFFFFF;" d="M 7 29 L 12 29 L 12 32 L 7 32 Z "></path>
<path style=" fill:#98CCFD;" d="M 2 20.5 C 1.726563 20.5 1.5 20.277344 1.5 20 L 1.5 15 C 1.5 14.722656 1.726563 14.5 2 14.5 L 4.5 14.5 L 4.5 20.5 Z "></path>
<path style=" fill:#4788C7;" d="M 4 15 L 4 20 L 2 20 L 2 15 L 4 15 M 5 14 L 2 14 C 1.449219 14 1 14.449219 1 15 L 1 20 C 1 20.550781 1.449219 21 2 21 L 5 21 Z "></path>
<path style=" fill:#98CCFD;" d="M 35.5 20.5 L 35.5 14.5 L 38 14.5 C 38.273438 14.5 38.5 14.722656 38.5 15 L 38.5 20 C 38.5 20.277344 38.273438 20.5 38 20.5 Z "></path>
<path style=" fill:#4788C7;" d="M 38 15 L 38 20 L 36 20 L 36 15 L 38 15 M 38 14 L 35 14 L 35 21 L 38 21 C 38.550781 21 39 20.550781 39 20 L 39 15 C 39 14.449219 38.550781 14 38 14 Z "></path>
</g>
</svg>