<svg xmlns="http://www.w3.org/2000/svg" xmlns:xlink="http://www.w3.org/1999/xlink" viewBox="0 0 40 40" version="1.1">
<g id="surface1">
<path style=" fill:#4788C7;" d="M 21 7 L 19 7 L 19 2 C 19 1.449219 19.449219 1 20 1 C 20.550781 1 21 1.449219 21 2 Z "></path>
<path style=" fill:#DFF0FE;" d="M 7.5 21.5 L 7.5 8.5 L 11.5 8.5 L 11.5 4.5 L 28.5 4.5 L 28.5 8.5 L 32.5 8.5 L 32.5 21.5 Z "></path>
<path style=" fill:#4788C7;" d="M 28 5 L 28 9 L 32 9 L 32 21 L 8 21 L 8 9 L 12 9 L 12 5 L 28 5 M 29 4 L 11 4 L 11 8 L 7 8 L 7 22 L 33 22 L 33 8 L 29 8 Z "></path>
<path style=" fill:#4788C7;" d="M 19 8 L 21 8 L 21 10 L 19 10 Z "></path>
<path style=" fill:#4788C7;" d="M 23 8 L 25 8 L 25 10 L 23 10 Z "></path>
<path style=" fill:#4788C7;" d="M 15 8 L 17 8 L 17 10 L 15 10 Z "></path>
<path style=" fill:#4788C7;" d="M 11 12 L 13 12 L 13 14 L 11 14 Z "></path>
<path style=" fill:#4788C7;" d="M 23 12 L 25 12 L 25 14 L 23 14 Z "></path>
<path style=" fill:#4788C7;" d="M 27 12 L 29 12 L 29 14 L 27 14 Z "></path>
<path style=" fill:#4788C7;" d="M 15 12 L 17 12 L 17 14 L 15 14 Z "></path>
<path style=" fill:#4788C7;" d="M 19 12 L 21 12 L 21 14 L 19 14 Z "></path>
<path style=" fill:#B6DCFE;" d="M 4.5 37.5 L 4.5 25.871094 L 1.734375 20.855469 C 1.429688 20.230469 1.441406 19.496094 1.78125 18.859375 C 2.121094 18.226563 2.726563 17.808594 3.441406 17.710938 L 20 15.503906 L 36.558594 17.710938 C 37.273438 17.808594 37.878906 18.226563 38.21875 18.859375 C 38.558594 19.496094 38.570313 20.230469 38.257813 20.878906 L 35.5 25.871094 L 35.5 37.5 Z "></path>
<path style=" fill:#4788C7;" d="M 20 16.007813 L 36.492188 18.207031 C 37.046875 18.28125 37.515625 18.605469 37.777344 19.097656 C 38.035156 19.582031 38.050781 20.144531 37.816406 20.640625 L 35.125 25.515625 L 35 25.742188 L 35 37 L 5 37 L 5 25.742188 L 4.875 25.515625 L 2.195313 20.65625 C 1.949219 20.15625 1.960938 19.585938 2.222656 19.097656 C 2.488281 18.605469 2.957031 18.28125 3.507813 18.207031 L 20 16.007813 M 20 15 L 3.375 17.21875 C 1.539063 17.460938 0.484375 19.433594 1.296875 21.097656 L 4 26 L 4 38 L 36 38 L 36 26 L 38.707031 21.097656 C 39.519531 19.433594 38.460938 17.460938 36.625 17.21875 Z "></path>
<path style=" fill:#DFF0FE;" d="M 2.222656 19.097656 C 1.960938 19.589844 1.949219 20.15625 2.195313 20.660156 L 4.875 25.515625 L 5 25.742188 L 5 37 L 20 37 L 20 16.007813 L 3.507813 18.207031 C 2.953125 18.28125 2.488281 18.605469 2.222656 19.097656 Z "></path>
<path style=" fill:#4788C7;" d="M 31 23 C 31 21.894531 30.328125 21 29.5 21 C 28.671875 21 28 21.894531 28 23 C 28 24.105469 28.671875 25 29.5 25 C 30.328125 25 31 24.105469 31 23 Z "></path>
<path style=" fill:#4788C7;" d="M 12 23 C 12 21.894531 11.328125 21 10.5 21 C 9.671875 21 9 21.894531 9 23 C 9 24.105469 9.671875 25 10.5 25 C 11.328125 25 12 24.105469 12 23 Z "></path>
<path style=" fill:#98CCFD;" d="M 4.5 28.5 L 35.5 28.5 L 35.5 37.5 L 4.5 37.5 Z "></path>
<path style=" fill:#4788C7;" d="M 35 29 L 35 37 L 5 37 L 5 29 L 35 29 M 36 28 L 4 28 L 4 38 L 36 38 Z "></path>
<path style=" fill:#98CCFD;" d="M 5 28 L 35 28 L 35 38 L 5 38 Z "></path>
<path style=" fill:#B6DCFE;" d="M 5 28 L 20 28 L 20 38 L 5 38 Z "></path>
<path style=" fill:#B6DCFE;" d="M 1 39 L 39 39 L 39 31.878906 C 37.691406 31.613281 36.148438 31 35 31 C 33.542969 31 31.4375 32 30 32 C 28.5625 32 26.457031 31 25 31 C 23.542969 31 21.4375 32 20 32 C 18.5625 32 16.457031 31 15 31 C 13.542969 31 11.4375 32 10 32 C 8.5625 32 6.457031 31 5 31 C 3.851563 31 2.308594 31.613281 1 31.878906 Z "></path>
<path style="fill:none;stroke-width:1;stroke-linecap:round;stroke-linejoin:miter;stroke:#4788C7;stroke-opacity:1;stroke-miterlimit:10;" d="M 1.5 32.277344 C 1.863281 32.191406 2.238281 32.085938 2.613281 31.980469 C 3.460938 31.746094 4.335938 31.5 5 31.5 C 5.664063 31.5 6.535156 31.746094 7.382813 31.984375 C 8.28125 32.238281 9.214844 32.5 10 32.5 C 10.785156 32.5 11.71875 32.238281 12.617188 31.984375 C 13.464844 31.746094 14.335938 31.5 15 31.5 C 15.664063 31.5 16.535156 31.746094 17.382813 31.984375 C 18.28125 32.238281 19.214844 32.5 20 32.5 C 20.785156 32.5 21.71875 32.238281 22.617188 31.984375 C 23.464844 31.746094 24.335938 31.5 25 31.5 C 25.664063 31.5 26.535156 31.746094 27.382813 31.984375 C 28.28125 32.238281 29.214844 32.5 30 32.5 C 30.785156 32.5 31.71875 32.238281 32.617188 31.984375 C 33.464844 31.746094 34.335938 31.5 35 31.5 C 35.664063 31.5 36.539063 31.746094 37.386719 31.980469 C 37.761719 32.085938 38.136719 32.191406 38.5 32.277344 "></path>
</g>
</svg>